<?xml version="1.0" standalone="no"?>
<!DOCTYPE svg PUBLIC "-//W3C//DTD SVG 1.1//EN" "http://www.w3.org/Graphics/SVG/1.1/DTD/svg11.dtd" >
<svg xmlns="http://www.w3.org/2000/svg">
<metadata>
Created by FontForge 20120731 at Tue Apr 18 17:24:43 2017
 By admin
</metadata>
<defs>
<font id="iconfont" horiz-adv-x="1024" >
  <font-face 
    font-family="iconfont"
    font-weight="500"
    font-stretch="normal"
    units-per-em="1024"
    panose-1="2 0 6 3 0 0 0 0 0 0"
    ascent="896"
    descent="-128"
    x-height="792"
    bbox="-0.096386 -146 1106.51 896.286"
    underline-thickness="0"
    underline-position="0"
    unicode-range="U+0078-E801"
  />
<missing-glyph 
 />
    <glyph glyph-name=".notdef" 
 />
    <glyph glyph-name=".notdef" 
 />
    <glyph glyph-name=".null" horiz-adv-x="0" 
 />
    <glyph glyph-name="nonmarkingreturn" horiz-adv-x="341" 
 />
    <glyph glyph-name="x" unicode="x" horiz-adv-x="1001" 
d="M281 543q-27 -1 -53 -1h-83q-18 0 -36.5 -6t-32.5 -18.5t-23 -32t-9 -45.5v-76h912v41q0 16 -0.5 30t-0.5 18q0 13 -5 29t-17 29.5t-31.5 22.5t-49.5 9h-133v-97h-438v97zM955 310v-52q0 -23 0.5 -52t0.5 -58t-10.5 -47.5t-26 -30t-33 -16t-31.5 -4.5q-14 -1 -29.5 -0.5
t-29.5 0.5h-32l-45 128h-439l-44 -128h-29h-34q-20 0 -45 1q-25 0 -41 9.5t-25.5 23t-13.5 29.5t-4 30v167h911zM163 247q-12 0 -21 -8.5t-9 -21.5t9 -21.5t21 -8.5q13 0 22 8.5t9 21.5t-9 21.5t-22 8.5zM316 123q-8 -26 -14 -48q-5 -19 -10.5 -37t-7.5 -25t-3 -15t1 -14.5
t9.5 -10.5t21.5 -4h37h67h81h80h64h36q23 0 34 12t2 38q-5 13 -9.5 30.5t-9.5 34.5q-5 19 -11 39h-368zM336 498v228q0 11 2.5 23t10 21.5t20.5 15.5t34 6h188q31 0 51.5 -14.5t20.5 -52.5v-227h-327z" />
    <glyph glyph-name="rili" unicode="&#xe609;" 
d="M890 666h-43v13q0 29 -20.5 49.5t-49.5 20.5h-1q-29 0 -49.5 -20.5t-20.5 -49.5v-13h-387v13q0 29 -20.5 49.5t-49.5 20.5h-1q-29 0 -49.5 -20.5t-20.5 -49.5v-13h-43q-29 0 -49.5 -20.5t-20.5 -49.5v-671q0 -29 20.5 -50t49.5 -21h755q29 0 49.5 21t20.5 50v671
q0 29 -20.5 49.5t-49.5 20.5zM734 679q0 18 12 30t30 12h1q17 0 29.5 -12t12.5 -30v-125q0 -17 -12.5 -29.5t-29.5 -12.5h-1q-18 0 -30 12.5t-12 29.5v125zM206 679q0 18 12.5 30t29.5 12h1q18 0 30 -12t12 -30v-125q0 -17 -12 -29.5t-30 -12.5h-1q-17 0 -29.5 12.5
t-12.5 29.5v125zM890 -89h-755q-6 0 -10 4t-4 10v493h783v-493q0 -6 -4 -10t-10 -4zM224 318h129v-64h-129v64zM449 318h128v-64h-128v64zM673 318h126v-64h-126v64zM224 189h129v-63h-129v63zM449 189h128v-63h-128v63zM673 189h126v-63h-126v63zM224 63h129v-66h-129v66z
M449 63h128v-66h-128v66zM673 63h126v-66h-126v66z" />
    <glyph glyph-name="gong" unicode="&#xe663;" 
d="M512 745q-91 0 -173.5 -35t-142 -94.5t-94.5 -142t-35 -173.5t35 -173.5t94.5 -142t142 -94.5t173.5 -35t173.5 35t142 94.5t94.5 142t35 173.5t-35 173.5t-94.5 142t-142 94.5t-173.5 35zM168 348q153 125 229 295l55 -22q-93 -194 -240 -317q-18 22 -44 44zM732 -7
q-20 32 -41 66q-228 -11 -370 -22q-27 -3 -64 -12l-30 59q31 12 57 37q81 94 175 276l60 -27q-86 -147 -183 -275q142 5 322 13q-39 60 -86 126l44 28q100 -129 168 -234zM814 314q-190 131 -257 319l51 20q67 -180 249 -285q-19 -20 -43 -54z" />
    <glyph glyph-name="tijiao" unicode="&#xe61d;" 
d="M999 513v0l-559 -539v0q-21 -21 -51.5 -21t-51.5 21v0l-316 305v0q-21 20 -21 49.5t21.5 50t51.5 20.5t51 -21v0l265 -255l507 490v0q21 20 51 20t51.5 -20.5t21.5 -49.5t-21 -50z" />
    <glyph glyph-name="cuowu" unicode="&#xe641;" 
d="M547 384l416 416q7 7 7 17.5t-7 17.5t-17.5 7t-17.5 -7l-416 -416l-416 416q-7 7 -17.5 7t-17.5 -7t-7 -17.5t7 -17.5l416 -416l-416 -416q-7 -7 -7 -17.5t7 -17.5t17.5 -7t17.5 7l416 416l416 -416q7 -7 17.5 -7t17.5 7t7 17.5t-7 17.5z" />
    <glyph glyph-name="lajixiang" unicode="&#xe645;" 
d="M944 704h-189v45q0 41 -29 70t-70 29h-294q-41 0 -70.5 -29t-29.5 -70v-45h-179q-10 0 -17.5 -7t-7.5 -19q0 -10 7 -17.5t18 -7.5h61v0v-634q0 -41 29 -70t70 -29h551q40 0 69.5 29t29.5 70v631v3h51q10 0 18 7t8 18q-7 26 -26 26zM317 749q0 19 14.5 33.5t33.5 14.5h294
q19 0 33.5 -14.5t14.5 -33.5v-45h-390v45zM842 29q0 -23 -12 -40.5t-30 -17.5h-550q-21 0 -38 13.5t-17 31.5l3 637h644v0v-624zM368 515q-26 0 -26 -25v-343q0 -11 8 -18t18 -7t18 7t8 18v343q-7 25 -26 25zM528 515q-26 0 -26 -25v-343q0 -11 8 -18t18 -7t18 7t8 18v343
q-7 25 -26 25zM688 515q-26 0 -26 -25v-343q0 -11 8 -18t18 -7t18 7t8 18v343q-7 25 -26 25z" />
    <glyph glyph-name="shangchuan" unicode="&#xe631;" 
d="M930 301q-15 0 -25.5 -10.5t-10.5 -25.5v-203h-762v203q0 15 -10.5 25.5t-25.5 10.5t-25.5 -10.5t-10.5 -25.5v-239q0 -14 10.5 -25t25.5 -11h834q15 0 25.5 11t10.5 25v239q0 15 -10.5 25.5t-25.5 10.5zM364.5 527q14.5 0 25.5 11v0l87 105v-408q0 -15 10.5 -25.5
t25.5 -10.5t25.5 10.5t10.5 25.5v409l87 -106h1q10 -11 25 -11t25.5 10.5t10.5 25.5t-10 25l-147 179h-1q-10 11 -25 11q-1 0 -2 -1q-16 1 -27 -10v0l-147 -179q-11 -10 -10.5 -25t11 -25.5t25 -10.5z" />
    <glyph glyph-name="rizhi1" unicode="&#xe6db;" 
d="M743 517h-437q-13 0 -22 -9t-9 -21.5t9 -21.5t22 -9h437q12 0 21 9t9 21.5t-9 21.5t-21 9zM743 337h-437q-13 0 -22 -9t-9 -21.5t9 -21.5t22 -9h437q12 0 21 9t9 21.5t-9 21.5t-21 9zM743 158h-437q-13 0 -22 -9t-9 -22t9 -22t22 -9h437q12 0 21 9t9 22t-9 22t-21 9z
M903 665q-5 5 -75 69q-102 93 -112 104l-9 9h-34v0v0h-482q-20 0 -34 -14t-14 -34v-797q0 -19 14 -33t34 -14h673q20 0 34 14t14 33v654zM787 689q32 -30 45 -42h-128v118q22 -21 83 -76zM204 16v769h439v-168q0 -13 9 -22t21 -9h178v-570h-647v0z" />
    <glyph glyph-name="gongyongshuangjiantoushang" unicode="&#xe78b;" 
d="M802 388q0 -14 -10 -24.5t-24.5 -10.5t-24.5 10l-231 231l-231 -231q-10 -10 -24.5 -10t-24.5 10.5t-10 25t10 24.5l255 255q11 10 25 10t25 -10l255 -255q10 -10 10 -25v0v0zM802 125q0 -15 -10 -25t-24.5 -10t-24.5 10l-231 231l-231 -231q-10 -10 -24.5 -10t-24.5 10
t-10 24.5t10 24.5l255 256q11 10 25 10t25 -10l255 -256q10 -10 10 -24v0v0z" />
    <glyph glyph-name="gongyongshuangjiantouxia" unicode="&#xe78c;" 
d="M802 380v0q0 -15 -10 -25l-255 -255q-11 -10 -25 -10t-25 10l-255 255q-10 10 -10 24.5t10 25t24.5 10.5t24.5 -10l231 -231l231 231q10 10 24.5 10t24.5 -10.5t10 -24.5v0zM802 643v0q0 -14 -10 -24l-255 -256q-11 -10 -25 -10t-25 10l-255 256q-10 10 -10 24.5t10 24.5
t24.5 10t24.5 -10l231 -231l231 231q10 10 24.5 10t24.5 -10t10 -25v0z" />
    <glyph glyph-name="gongyongshuangjiantouyou" unicode="&#xe78d;" 
d="M516 674v0q15 0 25 -10l255 -255q10 -11 10 -25t-10 -25l-255 -255q-10 -10 -24.5 -10t-25 10t-10.5 24.5t10 24.5l231 231l-231 231q-10 10 -10 24.5t10.5 24.5t24.5 10v0zM253 674v0q14 0 24 -10l256 -255q10 -11 10 -25t-10 -25l-256 -255q-10 -10 -24.5 -10t-24.5 10
t-10 24.5t10 24.5l231 231l-231 231q-10 10 -10 24.5t10 24.5t25 10v0z" />
    <glyph glyph-name="shenhe" unicode="&#xe6dc;" 
d="M917 5l-96 96q35 52 35 115q0 86 -61 147t-147.5 61t-147 -61t-60.5 -147.5t60.5 -147.5t147.5 -61q62 0 114 35l97 -96q9 -9 21.5 -9t21.5 9l15 15q9 9 9 22t-9 22v0zM760 162q-19 -40 -59 -59q-26 -12 -53 -12q-52 0 -88.5 36.5t-36.5 88t36.5 88.5t88 37t88.5 -37
t37 -88q0 -28 -13 -54v0zM376 177h-102q-13 0 -22 9t-9 22t9 22.5t22 9.5h100q4 44 22 85h-122q-13 0 -22 9t-9 22.5t9 22.5t22 9h161q48 59 119 85h-280q-13 0 -22 9t-9 22.5t9 22.5t22 9h489q13 0 22 -9t9 -22.5t-9 -22.5t-22 -9h-24q64 -23 110.5 -74.5t62.5 -118.5v456
q0 40 -28.5 68t-67.5 28h-595q-39 0 -67.5 -28t-28.5 -68v-686q0 -40 28.5 -68t67.5 -28h349q-77 22 -129.5 82.5t-64.5 140.5v0zM274 684h489q13 0 22 -9t9 -22.5t-9 -22.5t-22 -9h-489q-13 0 -22 9t-9 22.5t9 22.5t22 9v0z" />
    <glyph glyph-name="to-left-jt" unicode="&#xe604;" 
d="M508 674q14 0 24.5 -10t10.5 -24.5t-10 -24.5l-231 -231l231 -231q10 -10 10 -24.5t-10.5 -24.5t-25 -10t-24.5 10l-255 255q-10 11 -10 25t10 25l255 255q10 10 25 10v0v0zM771 674q15 0 25 -10t10 -24.5t-10 -24.5l-231 -231l231 -231q10 -10 10 -24.5t-10 -24.5
t-24.5 -10t-24.5 10l-256 255q-10 11 -10 25t10 25l256 255q10 10 24 10v0v0z" />
    <glyph glyph-name="gengduo" unicode="&#xe620;" 
d="M557 -8q-13 0 -22.5 9.5t-9.5 22.5t10 23l337 337l-337 337q-10 10 -10 23t9.5 22.5t22.5 9.5t23 -9l360 -360q9 -10 9 -23t-9 -23l-360 -360q-10 -9 -23 -9z" />
    <glyph glyph-name="tianjia" unicode="&#xe622;" 
d="M801 412h-257v258q0 13 -9.5 22.5t-22.5 9.5t-22.5 -9.5t-9.5 -22.5v-258h-257q-13 0 -22.5 -9t-9.5 -22.5t9.5 -23t22.5 -9.5h257v-257q0 -13 9.5 -22.5t22.5 -9.5t22.5 9.5t9.5 22.5v257h257q13 0 22.5 9.5t9.5 23t-9.5 22.5t-22.5 9z" />
    <glyph glyph-name="yincang" unicode="&#xe629;" horiz-adv-x="1070" 
d="M527.5 -128q104.5 0 199 40.5t163 109t109 163.5t40.5 199t-40.5 199t-109 163.5t-163 109t-199 40.5t-199 -40.5t-163 -109t-109.5 -163.5t-41 -199t41 -199t109.5 -163.5t163 -109t199 -40.5zM295 431h512v-94h-512v94z" />
    <glyph glyph-name="tongguo1" unicode="&#xe6ca;" 
d="M1021 383q2 -101 -36 -194.5t-105.5 -163.5t-164.5 -112t-205 -41q-107 1 -202 41t-163 109t-107.5 165.5t-37.5 203.5q2 103 41 195.5t105.5 160t161 108t202.5 41.5q107 1 203.5 -40.5t164.5 -111t106.5 -164.5t36.5 -197zM153 392q0 -20 14 -34q107 -108 223 -223
q23 -23 49 -4q17 12 30 25q168 167 352 351q27 27 31 46t-14 36q-17 16 -35.5 12t-44.5 -31q-47 -46 -99 -98l-115.5 -115.5l-98.5 -98.5q-21 -21 -28.5 -21t-29.5 21l-77 77l-83 83q-22 22 -44 11q-26 -13 -30 -37z" />
    <glyph glyph-name="baocun" unicode="&#xe602;" 
d="M720 787h-574q-11 0 -18 -7.5t-7 -17.5v-733q0 -10 7 -17t18 -7h733q10 0 17 7t7 17v574zM634 580q0 -5 -3.5 -9t-8.5 -4h-391q-5 0 -8.5 4t-3.5 9v97q0 5 3.5 8.5t8.5 3.5h391q5 0 8.5 -3.5t3.5 -8.5v-97v0zM805 115q0 -5 -3.5 -8.5t-8.5 -3.5h-562q-5 0 -8.5 3.5
t-3.5 8.5v281q0 5 3.5 8.5t8.5 3.5h562q5 0 8.5 -3.5t3.5 -8.5v-281zM756 359q0 5 -3.5 8.5t-8.5 3.5h-73q-5 0 -9 -3.5t-4 -8.5v-73q0 -5 4 -8.5t9 -3.5h73q5 0 8.5 3.5t3.5 8.5v73v0z" />
    <glyph glyph-name="chakanjinzhan" unicode="&#xe707;" 
d="M815 719v-89q-1 -61 -24 -116q-17 -42 -44 -76q-13 -15 -38 -39q-2 -1 -32 -25q24 -19 26 -20q22 -20 33 -33q15 -16 29 -37q29 -43 41 -96q6 -26 7 -44q0 -10 2 -82v-16h43q16 1 27.5 -11t10.5 -29q-1 -14 -9.5 -24t-22.5 -12q-10 -1 -12 -1h-671q-34 0 -40 32
q-3 17 7.5 31t28.5 14h49v6v72q0 36 11 77q11 36 27 64q10 19 30 45q10 13 25 28q21 21 43 35h1q-33 27 -35 29q-35 30 -61.5 76t-34.5 94q-5 25 -5 36q-1 13 -1 70v41h-46q-5 1 -12 2q-21 6 -26 28q-7 28 17 42q8 5 16 5h688q19 0 29 -20q6 -12 3.5 -25.5t-11.5 -21.5
q-11 -9 -26 -10h-43zM740 46v78q0 11 -3 30q-4 31 -20 63q-10 21 -26 42q-19 25 -45 43q-33 24 -70 34q-16 4 -24 17t-5 29q2 10 9.5 18.5t17.5 10.5q28 7 54 22q36 23 61 53q25 31 38 69q14 39 14 86v73v5h-441q0 -94 1 -107q0 -14 5 -34q8 -33 26 -64q20 -34 53 -62
q31 -26 72 -38q21 -6 27 -14q10 -10 10 -26t-10 -26q-7 -8 -24 -13q-41 -12 -74 -39q-26 -21 -45 -48q-22 -32 -33 -70q-8 -29 -9 -52v-74v-6h441zM393 535h250q-2 -19 -21 -35q-1 -1 -2 -1l-34 -34q-21 -18 -34 -39q-6 -9 -12 -33q-6 -27 -5 -48q2 -40 30 -62q3 -2 14 -12
q51 -48 56 -54q33 -33 45 -74q6 -19 6 -37q0 -1 1 -10h-338q3 29 3 31q4 24 16 45q11 22 25 36q17 20 26 28q3 3 52 46q26 24 29 54q3 24 -2 45q-5 23 -9 34q-4 14 -16 27l-41 41q-3 3 -12.5 12t-14.5 14q-12 12 -12 26z" />
    <glyph glyph-name="bingzhuangtu" unicode="&#xe607;" 
d="M467 816q-93 0 -177.5 -36t-146 -97.5t-97.5 -146t-36 -178t36 -178t97.5 -146t146 -97.5t177.5 -36t178 36t146 97.5t97.5 146t36.5 177.5h-458v458zM515 870v-457l314 333q-135 124 -314 124zM1018 387q0 97 -38 183.5t-106 149.5l-314 -333v-3h458v3z" />
    <glyph glyph-name="daochu" unicode="&#xe608;" 
d="M289 568q-1 -2 -1 -4v-2q1 -3 5 -3v0h137v-224v-1q0 -6 4.5 -10t10.5 -4v0h134q6 0 10.5 4t4.5 10v1v224h137q5 0 5 5q0 2 -1 4l-213 197q-4 4 -10 4v0v0q-6 0 -10 -4zM945 270l-133 103q-14 11 -31 11h-77l128 -128h-128l-65 -93h-257l-62 93h-128l128 128h-79
q-17 0 -31 -11l-133 -103q-14 -10 -9 -27l53 -163q3 -6 9.5 -11t13.5 -5h734q8 0 14.5 5t8.5 11l52 163q6 17 -8 27z" />
    <glyph glyph-name="edugao" unicode="&#xe60b;" 
d="M110 26h149q9 0 15.5 6.5t6.5 15.5v315q0 9 -6.5 15t-15.5 6h-149q-9 0 -15.5 -6t-6.5 -15v-315q0 -9 6.5 -15.5t15.5 -6.5zM334 26h148q9 0 15.5 6.5t6.5 15.5v443q0 9 -6.5 15.5t-15.5 6.5h-148q-9 0 -15.5 -6.5t-6.5 -15.5v-443q0 -9 6.5 -15.5t15.5 -6.5zM557 26h148
q10 0 16.5 6.5t6.5 15.5v530q0 9 -6.5 15.5t-16.5 6.5h-148q-9 0 -15.5 -6.5t-6.5 -15.5v-530q0 -9 6.5 -15.5t15.5 -6.5zM780 26h149q9 0 15.5 6.5t6.5 15.5v762q0 9 -6.5 15t-15.5 6h-149q-9 0 -15.5 -6t-6.5 -15v-762q0 -9 6.5 -15.5t15.5 -6.5zM937 -14h-850
q-9 0 -15.5 -6.5t-6.5 -15.5v-6q0 -9 6.5 -15t15.5 -6h850q9 0 15.5 6t6.5 15v6q0 9 -6.5 15.5t-15.5 6.5z" />
    <glyph glyph-name="guanbi" unicode="&#xe703;" 
d="M286 112l-45 45q-10 9 -10 22.5t10 22.5l181 181l-181 182q-10 9 -10 22.5t10 22.5l45 45q9 10 22.5 10t22.5 -10l182 -181l181 181q9 10 22.5 10t22.5 -10l45 -45q10 -9 10 -22.5t-10 -22.5l-181 -182l181 -181q10 -9 10 -22.5t-10 -22.5l-45 -45q-9 -10 -22.5 -10
t-22.5 10l-181 181l-182 -181q-9 -10 -22.5 -10t-22.5 10z" />
    <glyph glyph-name="duihao" unicode="&#xe60e;" 
d="M944 555l-462 -462q-28 -28 -68 -28t-68 28l-235 236q-28 28 -28 68t28 68l17 17q28 28 68 28t68 -28l82 -83l67 -67q33 31 69 67l309 310q28 28 68 28t68 -29l17 -17q28 -28 28 -68t-28 -68z" />
    <glyph glyph-name="guidang" unicode="&#xe610;" 
d="M772 579h-522q-8 0 -13.5 -6t-5.5 -14t5.5 -13.5t13.5 -5.5h522q8 0 13.5 5.5t5.5 13.5t-5.5 14t-13.5 6zM791 676h-560q-8 0 -13.5 -6t-5.5 -13.5t5.5 -13.5t13.5 -6h560q8 0 13 6t5 13.5t-5 13.5t-13 6zM949 476l-74 275v2q-10 25 -26 37.5t-48 12.5l-582 -1
q-53 0 -73 -50q-1 -2 -1 -3l-73 -281q-9 -9 -9 -20v-441q0 -15 14.5 -28t30.5 -13h821q15 0 22.5 12t7.5 29v441q0 19 -10 28zM735 165h-448v112h448v-112zM679 445q-40 -1 -59 -1h-209l-68 1h-224l62 293q6 15 13.5 20t24.5 5l582 2q19 0 26 -5t13 -20l63 -295h-224v0z
M679 445z" />
    <glyph glyph-name="fuzhi" unicode="&#xe611;" 
d="M819 794h-435q-42 0 -72 -30t-30 -73h486q21 0 36 -15t15 -36v-512q43 0 73 30t30 72v461q0 43 -30 73t-73 30v0zM666 486h-461v52h461v-52zM666 333h-461v51h461v-51zM154 640q-22 0 -37 -15t-15 -36v-563q0 -22 15 -37t37 -15h563q21 0 36 15t15 37v563q0 21 -15 36
t-36 15h-563z" />
    <glyph glyph-name="gongyingshanghechangguan" unicode="&#xe612;" horiz-adv-x="1085" 
d="M1082 541l2 -6h-3q-10 -52 -51.5 -86.5t-95.5 -34.5q-75 0 -121 61q-21 -28 -52.5 -44.5t-67.5 -16.5q-54 0 -95.5 34.5t-52.5 86.5h-6q-10 -52 -51.5 -86.5t-95.5 -34.5q-75 0 -121 61q-45 -61 -120 -61q-55 0 -96 34.5t-52 86.5h-3l2 6q-2 15 -2 24q0 74 60 119
l121 212h723l120 -212q60 -45 60 -119q0 -9 -2 -24zM181 294v-181h723v181h120v-422h-964v422h121z" />
    <glyph glyph-name="jihua" unicode="&#xe613;" horiz-adv-x="1069" 
d="M667 678q-9 0 -16 7t-11.5 16t-7 19t-2.5 16v117h2q7 0 15 -2.5t19 -9t26.5 -19t38.5 -33.5q25 -23 40 -38.5t22.5 -26.5t9.5 -18.5t2 -13.5v-14h-138v0zM776 327q43 0 80.5 -16t66 -44t44 -65.5t15.5 -81t-15.5 -81t-44 -65.5t-66 -44t-80.5 -16q-42 0 -79.5 16
t-65.5 44t-44.5 65.5t-16.5 81t16.5 81t44.5 65.5t65.5 44t79.5 16zM893 88q9 0 15.5 9.5t6.5 22.5t-6.5 22.5t-15.5 9.5h-89v82q0 8 -8 13.5t-22 5.5t-21 -5.5t-7 -13.5v-103q-2 -8 -2 -11q0 -14 6.5 -23t15.5 -9h127zM509 149q-1 -7 -1 -13v-15q0 -42 12 -79.5t34 -70.5
h-332q-18 0 -39 10.5t-39.5 27.5t-30.5 38.5t-12 44.5v640q0 19 9.5 40.5t24.5 39t34.5 29.5t41.5 12h359v-117q0 -19 5.5 -39.5t18 -38t31 -29t43.5 -11.5h137v-233q-7 2 -16 2h-17q-70 0 -128 -33t-94 -88h-273q-24 0 -41.5 -17t-17.5 -41.5t17.5 -41.5t41.5 -17h232v0z
M277 501q-24 0 -41.5 -17.5t-17.5 -41.5t17.5 -41t41.5 -17h352q24 0 41 17t17 41t-17 41.5t-41 17.5h-352z" />
    <glyph glyph-name="kandifei" unicode="&#xe614;" 
d="M512 -56q182 0 311 129t129 311t-129 311t-311 129t-311 -129t-129 -311t129 -311t311 -129zM512 -8q-162 0 -277 115t-115 277t115 277t277 115t277 -115t115 -277t-115 -277t-277 -115zM517 208q92 0 184 82q28 25 53 54q12 15 20 26l8 12l-8 13q-8 11 -20 26
q-25 29 -53 54q-92 81 -184 81t-184 -81q-28 -25 -53 -54q-13 -15 -20 -26l-9 -13l9 -12q7 -11 20 -26q25 -29 53 -54q92 -82 184 -82zM517 254q-75 0 -154 70q-26 22 -48 49q-7 9 -13 17q-3 3 -4 5v-25q1 2 4 5q6 8 13 17q22 27 48 49q79 70 154 70t154 -70q25 -22 48 -49
q7 -9 13 -17q3 -3 4 -5v25q-1 -2 -4 -5q-6 -8 -13 -17q-23 -27 -48 -49q-79 -70 -154 -70zM590 393q1 -4 1 -9q0 -31 -22 -53t-53 -22t-53 22t-22 53t22 53t53 22q16 0 30 -6q-17 -11 -17 -32q0 -15 11 -26t26 -11q14 0 24 9z" />
    <glyph glyph-name="kaipiao" unicode="&#xe615;" 
d="M512 832q-91 0 -174 -35.5t-143 -95.5t-95.5 -143t-35.5 -174t35.5 -174t95.5 -143t143 -95.5t174 -35.5t174 35.5t143 95.5t95.5 143t35.5 174t-35.5 174t-95.5 143t-143 95.5t-174 35.5zM714 371l-321 -194q-8 -4 -15 0.5t-7 13.5v386q0 9 7 13.5t15 0.5l321 -194
q7 -4 7 -13t-7 -13z" />
    <glyph glyph-name="jihuo" unicode="&#xe616;" 
d="M287 664l-111 112h-56v-56l112 -112zM343 831h56v-111h-56v111zM566 553h112v-56h-112v56zM622 720v56h-56l-111 -112l55 -56zM64 553h112v-56h-112v56zM343 329h56v-111h-56v111zM120 329v-55h56l111 111l-55 56zM944 63l-554 554q-12 12 -29.5 12t-29.5 -12l-53 -52
q-12 -13 -12 -30t12 -29l555 -555q12 -12 29.5 -12t29.5 12l52 53q13 12 13 29.5t-13 29.5zM483 357l-168 168l56 55l167 -167z" />
    <glyph glyph-name="jiaosehequanxian" unicode="&#xe618;" 
d="M859 596q-16 96 -95.5 152t-174.5 39q-100 -18 -164 -87.5t-47 -161.5q9 -54 34 -102l-231 -333q-15 -22 -11 -49l10 -57q-1 7 -2 15l-1 5v-2q9 -37 13 -37l76 -1q11 2 23 10t18 17l91 143l1 1l80 -7l106 167q55 -9 115 2q61 11 102 55t55 105t2 126zM747 530
q-6 -9 -13 -14.5t-13 -8.5t-14.5 -1.5t-14 2.5t-15.5 7.5t-15 10t-17.5 12.5t-18 12.5t-18 12.5t-17.5 12.5t-14.5 11t-12 12t-7 12.5t-3.5 14t3.5 15t8.5 18q27 38 72 46t82 -18.5t45 -72t-18 -83.5z" />
    <glyph glyph-name="mimazhongzhi" unicode="&#xe619;" 
d="M73 11v497q0 44 28.5 77t66.5 33h659q48 0 78.5 -29t30.5 -73v-505q0 -40 -28.5 -71t-88.5 -31h-614q-61 0 -96.5 32t-35.5 70zM395 135l-44 -36q53 -30 113 -29.5t107 25t78 70.5t31 102h81l-95 110l-110 -110h80q4 -32 -26.5 -74.5t-85 -65t-129.5 7.5zM578 406l44 37
q-53 29 -113 28.5t-107 -25t-78 -70.5t-31 -102h-88l102 -109l110 109h-81q-4 33 27 75t85.5 65t129.5 -8zM234 625v16t4 38t12.5 53.5t28 56.5t47.5 53.5t74 38t104.5 15.5t105 -15t74 -39t47 -52.5t28 -57.5t12.5 -53t4.5 -39t-0.5 -15v-146h-541v146zM644 516v161
q-1 4 -3.5 11.5t-13 26.5t-25 33.5t-42.5 26t-62.5 11.5t-61 -10.5t-39.5 -25.5t-20.5 -30t-9.5 -26l-1 -10v-168h278z" />
    <glyph glyph-name="paiqiguanli" unicode="&#xe61b;" 
d="M742.5 -128q-111.5 0 -190 79t-78.5 190t78.5 189.5t190 78.5t190 -78.5t78.5 -189.5t-78.5 -190t-190 -79zM742.5 358q-90.5 0 -154 -63.5t-63.5 -153.5t63.5 -154t154 -64t154 64t63.5 154t-63.5 153.5t-154 63.5zM852 52l-133 52v0l-2 2t-2 1q-3 2 -4 3q-4 4 -6 11
q-1 4 -1 6v130q0 10 7 17.5t18 7.5h2q10 0 17 -7.5t7 -17.5v-113l113 -44q9 -4 13 -13.5t0.5 -19t-12 -14t-17.5 -1.5zM781 717q0 21 -15 36t-36 15h-52v51h52q42 0 72 -30t30 -72v-269q-25 7 -51 10v259zM628 691h-2q-10 0 -17 7.5t-7 17.5v155q0 11 7 18t17 7h2
q10 0 17.5 -7t7.5 -18v-155q0 -10 -7.5 -17.5t-17.5 -7.5zM269 819h307v-51h-307v51zM219 691h-2q-11 0 -18 7.5t-7 17.5v155q0 11 7 18t18 7h2q10 0 17 -7t7 -18v-155q0 -10 -7 -17.5t-17 -7.5zM218 539v-3q0 -10 -7.5 -17t-17.5 -7h-2q-10 0 -17.5 7t-7.5 17v3
q0 10 7.5 17t17.5 7h2q10 0 17.5 -7t7.5 -17zM193 358h-2q-10 0 -17.5 7.5t-7.5 17.5v2q0 10 7.5 17.5t17.5 7.5h2q10 0 17.5 -7.5t7.5 -17.5v-2q0 -10 -7.5 -17.5t-17.5 -7.5zM218 229q0 -10 -7.5 -17t-17.5 -7h-2q-10 0 -17.5 7t-7.5 17v3q0 10 7.5 17t17.5 7h2
q10 0 17.5 -7t7.5 -17v-3zM293 256h151q-10 -27 -15 -51h-136q-10 0 -17 7t-7 17v2q0 11 7 18t17 7zM269 536v3q0 10 7 17t17 7h387q10 0 17 -7t7 -17v-3q0 -10 -7 -17t-17 -7h-387q-10 0 -17 7t-7 17zM293 358q-10 0 -17 7.5t-7 17.5v2q0 10 7 17.5t17 7.5h276
q-33 -22 -61 -52h-215zM64 717v-666q0 -21 15 -36t36 -15h340q14 -27 32 -51h-372q-42 0 -72 30t-30 72v666q0 42 30 72t72 30h51v-51h-51q-21 0 -36 -15t-15 -36z" />
    <glyph glyph-name="paixu" unicode="&#xe61c;" 
d="M352 448h320l-160 192zM672 320h-320l160 -192z" />
    <glyph glyph-name="peizhiguanli" unicode="&#xe61f;" 
d="M1021 245q3 -14 -1 -32q-3 -18 -11 -38q-7 -19 -18 -35q-11 -15 -24 -22q-14 -6 -24 -6t-21 4q-12 3 -28 6t-33 1q-17 -1 -34 -6.5t-29 -18.5q-27 -28 -31 -63q-5 -36 10 -67q10 -22 -4 -44q-6 -9 -21 -18q-14 -10 -31 -17q-16 -8 -36 -13q-18 -4 -33 -4q-9 0 -18 8
q-9 7 -12 16h-2q-12 34 -41 59t-67 25t-68 -25t-42 -58q-6 -13 -17 -19q-10 -6 -24 -6q-15 0 -34 6q-19 5 -38.5 13.5t-35 19t-22.5 22.5q-6 7 -6.5 17.5t8.5 29.5q12 25 9 57.5t-28 60.5q-15 16 -37 21t-42 4q-23 -1 -47 -9q-15 -4 -31 2q-12 5 -22 21q-10 15 -19 35
q-8 19 -12.5 39.5t-2.5 33.5q3 24 22 31q33 13 59.5 43t26.5 68t-26.5 66.5t-59.5 42.5q-10 3 -16.5 15.5t-6.5 25.5q0 15 4 32q5 17 12 34q7 16 16 31q10 13 21 20q9 5 17 4t18 -4q33 -13 69 -8q35 5 63 31q13 13 19 33t8 38q1 18 0 34q-2 14 -3 22q-2 6 -4 15t2 15
q6 16 23 27q18 12 37 20q19 7 39 11q18 4 29 4q15 0 23 -9.5t11 -19.5q12 -29 39.5 -51.5t65.5 -22.5t67.5 21.5t41.5 53.5q5 9 14 19q9 9 19 9q16 0 34 -4.5t35 -12.5q18 -7 33 -19t24 -27q5 -9 3 -19q-2 -11 -5 -15q-14 -32 -8.5 -67t31.5 -62q27 -26 65.5 -28.5
t71.5 12.5q9 6 21 4.5t21 -9.5q17 -16 29 -47q13 -31 17 -64q3 -18 -5 -29q-9 -10 -18 -13q-33 -12 -58 -43q-24 -30 -24 -68t20 -66q21 -28 54 -40q6 -4 13 -9q12 -10 16 -25zM511 146q49 0 93 18.5t76 51.5q33 33 52 77q18 43 18 92.5t-18 93.5q-19 43 -52 75
q-32 33 -76 52q-44 18 -93.5 18t-93 -18.5t-75.5 -51.5q-32 -32 -51 -75.5t-19 -92.5q0 -50 19 -93t51 -77q32 -33 76 -51.5t93 -18.5zM511 146z" />
    <glyph glyph-name="rizhi" unicode="&#xe801;" 
d="M832 737v95h-68v64h-668v-1024h832v865h-96zM768 64h-512v96h512v-96zM768 256h-512v96h512v-96zM768 448h-512v96h512v-96z" />
    <glyph glyph-name="rili1" unicode="&#xe623;" 
d="M833 -9h-625q-22 0 -38 15.5t-16 38.5v604q0 22 16 38t38 16l61 -2v-25q0 -34 24 -61t57 -27q32 0 56 28.5t24 62.5v24h195v-24q0 -34 24 -62.5t56.5 -28.5t56.5 28.5t24 62.5v24h47q23 0 38.5 -14t15.5 -36v-608q0 -23 -16 -38.5t-38 -15.5v0zM822 530h-603v-475h603
v475zM369 380h-86v85h86v-85zM369 250h-86v85h86v-85zM369 121h-86v86h86v-86zM498 380h-85v85h85v-85zM498 250h-85v85h85v-85zM498 121h-85v86h85v-86zM629 380h-87v85h87v-85zM629 250h-87v85h87v-85zM629 121h-87v86h87v-86zM758 380h-87v85h87v-85zM758 250h-87v85h87
v-85zM758 121h-87v86h87v-86zM704 626q-22 0 -37 15.5t-15 36.5v45q0 22 15 37.5t37 15.5t37.5 -15.5t15.5 -37.5v-45q0 -21 -15.5 -36.5t-37.5 -15.5zM349 626q-22 0 -37.5 15.5t-15.5 36.5v45q0 22 15.5 37.5t37.5 15.5t37.5 -15.5t15.5 -37.5v-45q0 -21 -15.5 -36.5
t-37.5 -15.5z" />
    <glyph glyph-name="shanchu" unicode="&#xe624;" 
d="M694 664q17 -2 50.5 -1.5t45.5 -1.5q34 -6 50.5 -33t12.5 -69h-54q-1 -54 -1 -298q0 -16 1 -48.5t0.5 -56.5t-2.5 -44q-3 -31 -23.5 -50.5t-50.5 -25.5q-17 -2 -38.5 -2.5t-50.5 0.5t-41 1q-29 0 -82.5 -0.5t-97 -0.5t-81.5 1q-63 1 -92 39q-3 4 -5 8.5t-4 10.5t-3 10
t-2 12l-1.5 12t-0.5 13.5v13v15v14.5v376h-52q-6 38 8.5 65t43.5 36q12 4 30.5 4.5t35.5 -0.5t38 0q-3 49 6 74.5t42 29.5q9 1 21.5 1t29 -0.5t25.5 -0.5h152h16.5h18.5t14 -1t14.5 -3t10.5 -6q6 -5 9.5 -12.5t4.5 -18.5t1.5 -19.5t0 -22.5t0.5 -21zM380 713v-50h262v52
h-261q-1 0 -1 -2zM329 553v-318q0 -6 -0.5 -19.5t-0.5 -24t0.5 -22.5t3 -20t7.5 -11q5 -4 15 -4t16 4q5 3 7.5 11t3.5 20t1 22t-0.5 23.5t-0.5 19.5v322h-51q-1 -1 -1 -3zM485 553v-308q0 -3 -1.5 -30t-0.5 -44.5t6 -24.5q5 -8 18 -11t21 3q4 4 6.5 12.5t3 20.5t0.5 23
t-1 24t-1 18v320h-51q-1 -1 0 -3zM642 553v-323q0 -5 -0.5 -20.5t-0.5 -24t1 -20t5 -18.5t10 -9q7 -3 16.5 -2t13.5 4q5 4 7 17.5t2 26t-1 31t-1 23.5v318h-51q-1 -1 -1 -3z" />
    <glyph glyph-name="shangchuan1" unicode="&#xe625;" 
d="M897 257v-148q0 -18 -13 -31t-31 -13h-682q-18 0 -31 13t-13 31v148q0 19 13 32t31 13h198q10 -26 33 -42.5t51 -16.5h118q28 0 51 16.5t33 42.5h198q18 0 31 -13t13 -32zM747 557q-8 -18 -28 -18h-118v-208q0 -12 -9 -20.5t-21 -8.5h-118q-12 0 -21 8.5t-9 20.5v208
h-118q-20 0 -28 18q-7 18 7 32l207 207q9 9 21 9t21 -9l207 -207q14 -14 7 -32zM710.5 133q8.5 9 8.5 21t-8.5 20.5t-20.5 8.5t-21 -8.5t-9 -20.5t9 -21t21 -9t20.5 9zM829 133q9 9 9 21t-9 20.5t-21 8.5t-20.5 -8.5t-8.5 -20.5t8.5 -21t20.5 -9t21 9z" />
    <glyph glyph-name="shuangjiantou1" unicode="&#xe627;" 
d="M559 -4l-61 64l334 324l-334 324l61 64l401 -388zM126 -4l-62 64l335 324l-335 324l62 64l400 -388z" />
    <glyph glyph-name="sousuo-sousuo" unicode="&#xe628;" 
d="M717 682q-69 69 -160.5 93t-183 0t-160 -92.5t-92.5 -160t0 -183t93 -160.5q43 -43 116.5 -73.5t134.5 -30.5t135 30.5t117 73.5t73.5 117t30.5 135t-30.5 134.5t-73.5 116.5zM136.5 101.5q-56.5 56.5 -96.5 153t-40 176.5q0 94 37 180.5t99 148.5t148.5 99t181 37
t180.5 -37t148.5 -99t99 -148.5t36.5 -180.5q0 -80 -39.5 -176.5t-96 -153t-153 -96t-176.5 -39.5t-176 39.5t-152.5 96zM1005.5 -109.5q-18.5 -18.5 -45 -18.5t-45.5 19l-89 90q-19 18 -19 44.5t18.5 45t45 18.5t44.5 -19l90 -89q19 -19 19 -45.5t-18.5 -45z" />
    <glyph glyph-name="tanhao" unicode="&#xe62a;" 
d="M512 -65q-91 0 -174.5 35.5t-143.5 95.5t-95.5 143.5t-35.5 174.5t35.5 174.5t95.5 143.5t143.5 95.5t174.5 35.5t174.5 -35.5t143.5 -95.5t95.5 -143.5t35.5 -174.5t-35.5 -174.5t-95.5 -143.5t-143.5 -95.5t-174.5 -35.5v0v0zM581 603q0 25 -22 43.5t-48 18.5
t-47.5 -18.5t-21.5 -43.5v-260q0 -25 18.5 -43.5t44.5 -18.5q27 0 51.5 19t24.5 43v260v0v0zM513 247q-29 0 -49.5 -20.5t-20.5 -49.5t20.5 -49.5t49.5 -20.5t49.5 20.5t20.5 49.5t-20.5 49.5t-49.5 20.5v0v0zM513 247z" />
    <glyph glyph-name="shangjia" unicode="&#xe62b;" 
d="M721 791q10 10 24.5 10t24.5 -10l180 -195q10 -10 10 -23t-10 -22l-122 -4v-346q0 -12 -10 -21.5t-24 -9.5h-97q-14 0 -23.5 9.5t-9.5 21.5v346l-123 4q-10 9 -10 22t10 23l180 195v0zM99 421h412q-1 18 -1 36v43q-1 17 -1 25v4h-410q-15 0 -25 -10t-10 -24v-39
q0 -14 10 -24.5t25 -10.5v0zM99 194h241v0h171q-1 18 -1 36v43q-1 17 -1 26v3h-410q-15 0 -25 -10t-10 -24v0v-39v0q0 -14 10 -24.5t25 -10.5v0zM923 75h-824q-15 0 -25 -10t-10 -24v-39q0 -14 10 -24.5t25 -10.5h824q14 0 24.5 10.5t10.5 24.5v39q0 14 -10.5 24t-24.5 10v0
zM99 756h412l-13 -16q-19 -26 -34 -46l-33 -46h-332q-15 0 -25 10.5t-10 24.5v39q0 14 10 24t25 10v0z" />
    <glyph glyph-name="wenhao" unicode="&#xe62c;" horiz-adv-x="1027" 
d="M513.5 896q-104.5 0 -199 -40.5t-163 -109t-109 -163.5t-40.5 -199t40.5 -199t109 -163.5t163 -109t199 -40.5t199 40.5t163.5 109t109.5 163.5t40.5 199t-40.5 199t-109.5 163.5t-163.5 109t-199 40.5zM510 29q-23 0 -39 16t-16 39t16 39.5t39 16.5t39.5 -16.5
t16.5 -39.5t-16.5 -39t-39.5 -16zM711 478q-15 -32 -64 -79t-66 -68q-16 -20 -24 -47q-8 -28 -7 -75h-86q0 55 8.5 87.5t26.5 56.5q18 25 63.5 72t58.5 69q14 21 14 63.5t-30.5 75.5t-87.5 33q-130 0 -130 -154h-86q2 70 17 106q14 37 46.5 65.5t72 42.5t83.5 14
q88 0 147 -52.5t59 -138.5q0 -40 -15 -71z" />
    <glyph glyph-name="xinzeng" unicode="&#xe62e;" horiz-adv-x="1033" 
d="M935 287h-321v-318q0 -40 -28.5 -68.5t-68.5 -28.5h-1q-40 0 -68.5 28.5t-28.5 68.5v318h-322q-40 0 -68.5 28.5t-28.5 68.5t28.5 68.5t68.5 28.5h322v318q0 40 28.5 68.5t68.5 28.5h1q40 0 68.5 -28.5t28.5 -68.5v-318h321q40 0 68.5 -28.5t28.5 -68.5t-28.5 -68.5
t-68.5 -28.5z" />
    <glyph glyph-name="xiang" unicode="&#xe62f;" 
d="M852 810h-683q-35 0 -60 -24.5t-25 -60.5v-678q0 -36 25 -60.5t60 -24.5h683q35 0 60 24.5t25 60.5v678q0 36 -25 60.5t-60 24.5zM448 662h332v-39h-153l-20 -68h145v-282h-43v243h-206v-245h-44v284h103l18 68h-132v39zM237 287q18 4 61 13q14 3 21 5v293h-75v39h188
v-39h-70v-284q45 14 77 20q2 -27 4 -43q-2 0 -7 -1.5t-13.5 -3.5t-15.5 -4q-116 -27 -159 -41zM755 155q-50 43 -134 105q-12 9 -19 13q-36 -75 -174 -125q-3 5 -10 14q-11 16 -15 25q109 34 145 77q39 43 36 134v82h43v-84q0 -48 -9 -84q37 -25 96 -71q46 -30 70 -47z" />
    <glyph glyph-name="xiugai" unicode="&#xe630;" 
d="M65 135v-186h186l484 521l-186 186l-484 -521v0zM884 619q14 14 14 37.5t-14 37.5l-111 111q-14 14 -37.5 14t-37.5 -14l-111 -111l186 -187zM437 23l-74 -74h596v74h-522z" />
    <glyph glyph-name="yinzhang" unicode="&#xe632;" horiz-adv-x="1036" 
d="M154 82h740v-82h-740v82zM839 301h-179q-27 32 -30 65q-2 27 7.5 53.5t24.5 49.5t30 46.5t26 54.5t11 65q0 79 -56 132.5t-149 53.5t-149 -53.5t-56 -132.5q0 -34 11 -65t26 -54.5t30 -46.5t24.5 -49.5t7.5 -53.5q-3 -33 -30 -65h-179q-23 0 -39 -16t-16 -38v-110h740
v110q0 22 -16 38t-39 16z" />
    <glyph glyph-name="yunyingxinxitong" unicode="&#xe633;" 
d="M983 566q-33 102 -102 178q-116 128 -283 148.5t-309 -73.5l255 -403l439 150v0zM205 843q-33 -23 -62 -51q-74 -71 -113 -173l431 -177l-256 401v0zM971 500l-441 -148l-430 177q-50 -130 -24.5 -267t117.5 -238q86 -95 204 -132t238.5 -8.5t212.5 118.5q99 95 132 230
t-9 268v0zM971 500z" />
    <glyph glyph-name="zanwu" unicode="&#xe634;" 
d="M1023 384q0 104 -40.5 199t-109 163.5t-163 109t-198.5 40.5t-199 -40.5t-163.5 -109t-109 -163.5t-40.5 -199t40.5 -198.5t109 -163t163.5 -109t199 -40.5t198.5 40.5t163 109t109 163t40.5 198.5zM927 384q0 -113 -55.5 -208.5t-151 -151t-208.5 -55.5t-209 55.5
t-151.5 151t-55.5 208.5t55.5 209t151.5 151.5t209 55.5t208.5 -55.5t151 -151.5t55.5 -209zM448 233h127v-140h-127v140zM448 676h127v-389h-127v389z" />
    <glyph glyph-name="zuo" unicode="&#xe635;" 
d="M463 828q-18 0 -30.5 -12.5t-12.5 -30.5q0 -16 11 -28l-1 -1l3 -2v0l358 -358q11 -12 0 -23l-361 -361h1q-11 -13 -11 -29q0 -18 12.5 -30.5t30.5 -12.5q23 0 36 20q1 1 2.5 1t1.5 1l411 411q11 11 0 23l-411 411q-1 0 -2.5 0.5l-1.5 0.5q-14 20 -36 20zM151 828
q-18 0 -30.5 -12.5t-12.5 -30.5q0 -16 11 -28l-1 -1l2 -2h1l358 -358q11 -12 0 -23l-361 -361h1q-11 -13 -11 -29q0 -18 12.5 -30.5t30.5 -12.5q23 0 36 20q0 1 1.5 1t2.5 1l411 411q11 11 0 23l-411 411q-1 0 -2.5 0.5t-2.5 0.5q-13 20 -35 20v0z" />
    <glyph glyph-name="tuichu" unicode="&#xe636;" horiz-adv-x="1107" 
d="M618 218h135v-207q0 -36 -11 -62.5t-29 -43.5t-42 -25t-51 -8h-482q-26 0 -51 10.5t-44 29t-31 43.5t-12 55v752q0 26 13 50q12 25 32 43q19 18 43 29.5t48 11.5h478q29 0 54 -12.5t44 -31.5t30 -43t11 -47v-200h-135l1 208h-482l-1 -760h482v208v0zM1086 422
q40 -33 2 -64q-22 -17 -47 -41q-12 -11 -53 -49q-28 -26 -55 -51q-28 -25 -51 -44q-25 -19 -43 -19t-18 26q2 15 1 38q-2 23 -2 40q0 18 -13 22.5t-31 4.5h-44h-67q-41 0 -77.5 0.5t-77.5 0.5h-67h-45q-8 0 -19 1q-10 2 -18 7.5t-13 15.5q-5 9 -5 25q0 24 -1 49q0 26 1 50
q0 29 14 40t46 10h36h63q39 0 74.5 -0.5t75.5 -0.5h66h41q28 -1 47 4q19 6 19 24q0 14 1 34.5t1 34.5q0 25 13.5 31.5t34.5 -9.5q6 -5 22 -19t26 -22q20 -16 56 -48q6 -5 26 -22t30 -26q28 -25 51 -43v0zM1086 422z" />
    <glyph glyph-name="ICON_jisongziliao" unicode="&#xe637;" 
d="M627 384l295 288q-13 26 -39 26h-742q-26 0 -39 -26l295 -288q48 -29 115 -29t115 29zM96 614v-460l243 230zM685 384l243 -230v460zM646 346q-57 -34 -134 -34t-134 34l-13 12l-269 -262q10 -19 38 -19h749q29 0 39 19l-269 262z" />
    <glyph glyph-name="ICON_daichuli-daiguidang" unicode="&#xe626;" 
d="M916 106q-315 539 -356 606q-6 14 -21 24.5t-31 10.5t-31 -10.5t-21 -24.5q-240 -412 -328 -571q-20 -29 -26 -51.5t-1 -35t14.5 -20.5t16.5 -10.5t8 -2.5h761q14 5 21 16t7 21.5t-3.5 23t-5.5 17t-4 7.5v0v0zM512 118q-20 0 -34 14.5t-14 34t14 33.5t34 14t34 -14
t14 -33.5t-14 -34t-34 -14.5zM561 310q0 -20 -14.5 -34t-34.5 -14t-34 14t-14 34v150q0 20 14 34t34 14t34.5 -14t14.5 -34v-152v2z" />
    <glyph glyph-name="ICON_xiazai" unicode="&#xe62;" 
d="M927 192v-160q0 -20 -13 -33q-14 -14 -34 -14h-736h-1q-19 0 -33 14t-14 33v160q0 20 14 34t34 14h214q11 -28 35 -47q22 -17 55 -17h127q30 0 55 17q26 21 35 47h214q20 0 34 -14q14 -15 14 -34zM759 473l-224 -223q-10 -10 -22.5 -10t-22.5 10l-225 223q-10 10 -10 23
q0 7 3 13q7 20 30 20h127v223q0 14 10 23q10 8 23 8h127q13 0 23 -10q9 -9 9 -22v-224h128q21 0 30 -20q9 -18 -6 -34zM726 57q10 10 10 22.5t-10 22.5t-22.5 10t-22.5 -10t-10 -22.5t10 -22.5q9 -10 23 -10q14 1 23 11zM855 57q10 10 10 22.5t-10 22.5q-9 10 -23 10
q-13 0 -22 -10q-10 -10 -10 -22.5t10 -22.5q9 -10 23 -10q13 1 23 11z" />
    <glyph glyph-name="caogao" unicode="&#xe63c;" 
d="M671 895h-51.5t-131 0.5t-136.5 0.5h-6h-172q-31 0 -52.5 -22t-21.5 -52v-876q0 -30 21.5 -52t52.5 -22h676q31 0 52.5 22t21.5 52v694zM671 832l190 -192h-127q-26 0 -44.5 18.5t-18.5 45.5v128zM322 128q-13 0 -22.5 9.5t-9.5 22.5t9.5 22.5t22.5 9.5h380
q13 0 22.5 -9.5t9.5 -22.5t-9.5 -22.5t-22.5 -9.5h-380zM702 384q13 0 22.5 -9.5t9.5 -22.5t-9.5 -22.5t-22.5 -9.5h-380q-13 0 -22.5 9.5t-9.5 22.5t9.5 22.5t22.5 9.5h380z" />
    <glyph glyph-name="ICON_tijiaoOA" unicode="&#xe72c;" 
d="M862 653h-198v64v2q0 20 -14.5 34.5t-34.5 14.5v0h-206q-20 0 -34 -14.5t-15 -34.5v-64h-198q-27 0 -45.5 -18.5t-18.5 -45.5v-527q0 -27 18.5 -45.5t45.5 -18.5h700q27 0 45.5 18.5t18.5 45.5v522v3q0 26 -18.5 45t-45.5 19v0zM394 717q0 6 4.5 10.5t10.5 4.5v0h206v0
q6 0 10.5 -4.5t4.5 -10.5v-64h-236v64zM913 302h-299v-10q0 -7 -4.5 -11.5t-11.5 -4.5h-169q-6 0 -11 4.5t-5 11.5v13h-310v30h310v14q0 6 5 11t11 5h169q6 0 11 -5t5 -11v-14h299v-30v-3z" />
    <glyph glyph-name="ICON_bohui" unicode="&#xe63d;" 
d="M467 589v179q0 19 -6 26q-23 11 -45 0l-294 -327q-13 -13 -13 -25q0 -20 6 -26l295 -326q29 -15 44 0q13 12 7 19v185q148 0 264 -93t145 -233q39 86 39 179q2 89 -32.5 171t-94.5 141.5t-142.5 94.5t-172.5 35z" />
    <glyph glyph-name="ICON_chulizhong" unicode="&#xe701;" 
d="M512 800q-173 0 -294.5 -121.5t-121.5 -294.5t121.5 -294.5t294.5 -121.5t294.5 121.5t121.5 294.5t-121.5 294.5t-294.5 121.5zM275 326q-24 0 -40.5 17t-16.5 41t16.5 41t40.5 17t41 -17t17 -41t-17 -41t-41 -17zM512 326q-24 0 -41 17t-17 41t17 41t41 17t41 -17
t17 -41t-17 -41t-41 -17zM749 326q-24 0 -41 17t-17 41t17 41t41 17t40.5 -17t16.5 -41t-16.5 -41t-40.5 -17z" />
    <glyph glyph-name="ICON_daishenhe" unicode="&#xe702;" 
d="M138 51h748v-83h-748v83zM832 273h-182q-29 31 -31 72q-2 25 7.5 50.5t25 47.5t31 46t26.5 55t11 65q0 80 -56.5 136t-135.5 56q-8 0 -17 -1q-6 1 -15 1q-80 0 -136 -56.5t-56 -135.5v-1q0 -34 11 -65.5t26.5 -55.5t31 -47t25 -49.5t6.5 -54.5q-5 -41 -35 -70l-177 6
q-23 0 -39 -16t-16 -39v-111h749v112v0q0 23 -16 39t-38 16v0z" />
    <glyph glyph-name="ICON_tijiaoOAfuben" unicode="&#xe704;" 
d="M755 564h-486q-7 0 -12 -5.5t-5 -13t5 -12.5t12 -5h486q7 0 12 5t5 12.5t-5 13t-12 5.5zM772 654h-520q-14 -3 -14 -17.5t14 -17.5h520q14 3 14 17.5t-14 17.5v0zM918 468l-68 256q-6 21 -23 34.5t-39 13.5q-3 0 -7 -1h-540h-6q-22 0 -39 -13t-23 -33l-69 -264
q-8 -7 -8 -19v-409q2 -16 14 -26.5t28 -11.5h762q13 2 21 11t8 21q0 3 -1 6v409v3q0 14 -9 24zM719 180h-415v104h416v-104h-1zM668 440h-520l57 272q3 11 11.5 18t18.5 7q4 0 6 -1h541q3 1 7 1q11 0 19 -7t10 -18l59 -274h-209v2z" />
    <glyph glyph-name="ICON_biaozhu" unicode="&#xe666;" 
d="M800 230h-250v-230q0 -14 -8.5 -23t-23.5 -9h-6q-14 0 -23 9t-9 23v230h-256q-15 0 -21.5 12t2.5 27l121 128v352h-57q-9 -4 -14 1t-5 12v19q0 19 19 19h486q19 0 19 -19v-19q0 -20 -19 -20h-57v-352l121 -128q10 -9 3 -20.5t-22 -11.5z" />
    <glyph glyph-name="ICON_chakan" unicode="&#xe706;" 
d="M512 681q-206 0 -346 -180q-48 -62 -70 -117q3 -6 7.5 -17t23 -41.5t40 -58.5t57.5 -62.5t76 -59t95.5 -41.5t116.5 -17t116.5 16.5t96 42.5t75.5 58t58 63t39.5 58t23.5 42.5t7 16.5q-2 6 -7 17t-23.5 41.5t-40 58.5t-57.5 62.5t-76 59t-95.5 41.5t-116.5 17zM512 205
q-74 0 -126.5 52.5t-52.5 126.5t52.5 126.5t126.5 52.5t126.5 -52.5t52.5 -126.5t-52.5 -126.5t-126.5 -52.5zM601 384q0 -37 -26 -63t-63 -26t-63 26t-26 63t26 63t63 26v0q37 0 63 -26t26 -63z" />
    <glyph glyph-name="ICON_jiantou" unicode="&#xe708;" 
d="M239 442q295 285 451 435q17 17 38.5 19t38 -10t27 -29t8 -38.5t-20.5 -38.5q-44 -43 -184 -178.5t-216 -209.5q45 -44 185.5 -184t216.5 -217q18 -17 20.5 -39t-8.5 -39t-27 -28.5t-37.5 -9.5t-39.5 19q-146 146 -452 450q-19 19 -19 49t19 49z" />
    <glyph glyph-name="ICON_pizhu" unicode="&#xe709;" 
d="M294 309l-96 -244l240 99zM990 831l-30 30q-25 25 -61 25t-61 -25l-518 -517l153 -153l426 426l-152 153l30 30l152 -152l61 61q26 25 26 60.5t-26 61.5zM833 -15h-725v726h497l103 101h-657q-18 0 -31 -12.5t-13 -30.5v-840q0 -18 13 -30.5t31 -12.5h841q17 0 30 12.5
t13 30.5v632l-101 -110z" />
  </font>
</defs>
</svg>
