<?xml version="1.0" standalone="no"?>
<!DOCTYPE svg PUBLIC "-//W3C//DTD SVG 1.1//EN" "http://www.w3.org/Graphics/SVG/1.1/DTD/svg11.dtd" >
<svg xmlns="http://www.w3.org/2000/svg">
<metadata>
Created by FontForge 20120731 at Mon Feb 29 18:28:59 2016
 By Ads
</metadata>
<defs>
<font id="myfont" horiz-adv-x="1024" >
  <font-face 
    font-family="myfont"
    font-weight="500"
    font-stretch="normal"
    units-per-em="1024"
    panose-1="2 0 6 3 0 0 0 0 0 0"
    ascent="896"
    descent="-128"
    x-height="792"
    bbox="0 -212 1024 888.214"
    underline-thickness="50"
    underline-position="-100"
    unicode-range="U+0078-E621"
  />
<missing-glyph horiz-adv-x="374" 
d="M34 0v682h272v-682h-272zM68 34h204v614h-204v-614z" />
    <glyph glyph-name=".notdef" horiz-adv-x="374" 
d="M34 0v682h272v-682h-272zM68 34h204v614h-204v-614z" />
    <glyph glyph-name=".null" horiz-adv-x="0" 
 />
    <glyph glyph-name="nonmarkingreturn" horiz-adv-x="341" 
 />
    <glyph glyph-name="x" unicode="x" horiz-adv-x="1001" 
d="M281 543q-27 -1 -53 -1h-83q-18 0 -36.5 -6t-32.5 -18.5t-23 -32t-9 -45.5v-76h912v41q0 16 -0.5 30t-0.5 18q0 13 -5 29t-17 29.5t-31.5 22.5t-49.5 9h-133v-97h-438v97zM955 310v-52q0 -23 0.5 -52t0.5 -58t-10.5 -47.5t-26 -30t-33 -16t-31.5 -4.5q-14 -1 -29.5 -0.5
t-29.5 0.5h-32l-45 128h-439l-44 -128h-29h-34q-20 0 -45 1q-25 0 -41 9.5t-25.5 23t-13.5 29.5t-4 30v167h911zM163 247q-12 0 -21 -8.5t-9 -21.5t9 -21.5t21 -8.5q13 0 22 8.5t9 21.5t-9 21.5t-22 8.5zM316 123q-8 -26 -14 -48q-5 -19 -10.5 -37t-7.5 -25t-3 -15t1 -14.5
t9.5 -10.5t21.5 -4h37h67h81h80h64h36q23 0 34 12t2 38q-5 13 -9.5 30.5t-9.5 34.5q-5 19 -11 39h-368zM336 498v228q0 11 2.5 23t10 21.5t20.5 15.5t34 6h188q31 0 51.5 -14.5t20.5 -52.5v-227h-327z" />
    <glyph glyph-name="uniE600" unicode="&#xe600;" 
d="M710 447h-17v-428h-56v428h-94v-428h-56v428h-94v-428h-56v428h-36h-77v-448q0 -30 22.5 -52t54.5 -22h409q16 0 30 6t24.5 16t16.5 23.5t6 28.5v448q0 1 -9 1t-30.5 -0.5t-37.5 -0.5zM824 581h-168v46q0 13 -13.5 24.5t-30.5 17.5t-31 6h-150q-24 0 -49.5 -14.5
t-25.5 -33.5v-46h-169q-15 0 -26.5 -11t-11.5 -26.5t11.5 -26.5t26.5 -11h637q10 0 19 5t14 14t5 19q0 4 -1 8.5t-3 8t-4.5 7t-6 6t-7 4t-8 2.5t-8.5 1zM581 581h-150v19h150v-19z" />
    <glyph glyph-name="uniE601" unicode="&#xe601;" 
d="M374 353h277q19 0 34.5 9t24.5 24.5t9 34.5v216q0 28 -20 48t-48 20h-277q-10 0 -18.5 -2.5t-16 -7t-13.5 -10.5t-10.5 -13.5t-7 -16.5t-2.5 -18v-216q0 -28 20 -48t48 -20zM352 637q0 9 6.5 15.5t15.5 6.5h277q5 0 9 -1.5t7 -4.5t4.5 -7t1.5 -9v-216q0 -6 -3 -11t-8 -8
t-11 -3h-277q-3 0 -6 1t-5.5 2t-4.5 3t-3 4.5t-2 5.5t-1 6v216zM838 445h-45q-29 0 -51.5 -21.5t-22.5 -48.5v-41q-3 1 -5 2h-6q-2 1 -5 1.5t-6 0.5h-369q-11 0 -22 -4v41q0 29 -19 49.5t-46 20.5h-45q-29 0 -51 -21.5t-22 -48.5v-371q0 -28 22 -53.5t51 -25.5h49v-31h61v31
h428v-31h61v31h43q27 0 45.5 24.5t18.5 54.5v371q0 19 -8.5 35t-23 25.5t-32.5 9.5zM306 270q0 9 6.5 15.5t15.5 6.5h369q6 0 11 -3t8 -8t3 -11v-109q0 -9 -6.5 -15.5t-15.5 -6.5h-369q-6 0 -11 3t-8 8t-3 11v109zM857 4q0 -1 -0.5 -2t-1 -4.5t-1.5 -6.5t-3.5 -7t-6 -6.5
t-9 -4.5t-11.5 -2h-623q-14 0 -22.5 9t-9.5 14.5t-1 9.5v371q0 8 9 16t19 8h45q8 0 13.5 -7.5t5.5 -16.5v-251q0 -8 3.5 -14.5t8 -9.5t8.5 -4l8 -3h3h37h369h37h1q1 0 4.5 1t6.5 2t6.5 3t6 5.5t4.5 8.5t2 11v37v109v105q0 8 9 16t19 8h45q2 0 4.5 -0.5t4.5 -2t3.5 -3t2.5 -4
t2 -4.5t1.5 -5t0.5 -5v-371z" />
    <glyph glyph-name="uniE602" unicode="&#xe602;" 
d="M905 361q-21 41 -58 61q-25 14 -53 14v0h-115v181q0 12 -2 24t-6.5 23.5t-11.5 21.5q-19 33 -51 50q-23 11 -47 11q-8 0 -23 1h-19h-1q-15 0 -25 -2q-16 -2 -26 -9l-14 -9l-6 -15q-5 -13 -5 -30v-76v-143v-1q0 -14 -8 -25v0q-2 -3 -4 -5l-4 -4q-2 -2 -4.5 -4t-5.5 -4
l-6 -4q-17 -11 -42 -19v27h-279v-572h279v65q8 -14 18 -25t22 -19v0q30 -21 66 -22v0h320v0q14 0 27.5 3.5t25.5 10.5v0q24 13 43 36q9 12 17 27.5t13.5 35t5.5 36.5q0 37 1 263v0v7q0 24 -5.5 47t-16.5 43zM876 264h-153v-16h153q-1 -48 -1 -110h-152v-15h152v-106h-152
v-15h152v-1q0 -16 -8 -35.5t-18 -31.5q-11 -15 -26 -23q-14 -7 -29 -7h-320q-6 0 -12.5 1t-12.5 4t-11.5 7t-11 9.5t-10.5 12.5t-9 15l-8 16h-30v376q40 11 68 28q12 7 21.5 16t17.5 19q17 25 17 56v143v76q0 8 2 11q1 1 6 2q6 1 17 1h1q6 0 19.5 -0.5t22.5 -0.5q12 0 24 -6
q18 -9 30 -30q13 -21 13 -43v-233h166q5 0 10 -0.5t9.5 -2.5t9.5 -4q11 -6 20.5 -16t16.5 -24t11.5 -30.5t4.5 -35.5v-7z" />
    <glyph glyph-name="uniE603" unicode="&#xe603;" 
d="M905 239q-21 -41 -58 -60q-25 -14 -53 -14v0h-115v-182q0 -36 -20 -69q-19 -33 -51 -49q-23 -12 -47 -12h-23q-13 -1 -19 -1h-1q-7 0 -13.5 0.5t-11.5 1.5q-16 3 -26 9l-14 10l-6 15q-2 6 -3.5 13.5t-1.5 16.5v76v143v0v5l-2 6q0 2 -1 4l-2 6q-1 2 -3 4v1q-2 3 -4.5 5.5
t-5.5 5t-6.5 5t-7.5 5.5q-9 5 -19 9.5t-23 8.5v-27h-279v572h279v-64q8 13 18 24t22 19v0q15 11 31.5 16.5t34.5 5.5v0h320v0q28 0 53 -14v0q8 -4 15.5 -9.5t14.5 -12t13 -14.5q6 -9 12.5 -20t12 -24t8.5 -27t3 -27q0 -38 1 -263v0v-8q0 -24 -5.5 -47t-16.5 -43zM876 337
h-153v15h153q-1 49 -1 110h-152v16h152v105h-152v16h152v1q0 6 -1.5 14t-4 15t-6 14t-7 13t-7.5 11q-11 14 -26 22q-14 8 -29 8h-320q-10 0 -19 -3t-18 -9q-4 -4 -8 -7.5t-8 -8t-7.5 -10t-6.5 -11.5l-8 -17h-30v-376q40 -10 68 -27q25 -16 39 -36q17 -25 17 -55v-143v-76
q0 -8 2 -11v-1q1 -1 6 -1q6 -1 17 -1h1h19h23q12 0 24 6q3 2 6.5 4.5t7 5.5t6.5 6t5.5 7t4.5 8q13 20 13 42v233h166q4 0 7.5 0.5t7.5 1.5t7.5 2.5t6.5 3.5q11 5 20.5 15.5t16.5 23.5q7 14 11.5 31t4.5 35v8z" />
    <glyph glyph-name="uniE604" unicode="&#xe604;" 
d="M161.5 398q40.5 0 69.5 -28.5t29 -69.5t-29 -69.5t-69.5 -28.5t-69 28.5t-28.5 69.5t28.5 69.5t69 28.5zM512 398q27 0 49.5 -13t35.5 -35.5t13 -49.5q0 -20 -7.5 -38t-21 -31.5t-31.5 -21t-38 -7.5q-41 0 -69.5 28.5t-28.5 69.5t28.5 69.5t69.5 28.5zM862.5 398
q40.5 0 69 -28.5t28.5 -69.5q0 -27 -13 -49.5t-35.5 -35.5t-49.5 -13q-40 0 -69 28.5t-29 69.5t29 69.5t69.5 28.5z" />
    <glyph glyph-name="uniE605" unicode="&#xe605;" 
d="M764 402v110q0 103 -72.5 175.5t-175.5 72.5q-67 0 -124 -33t-90 -90t-33 -125v-110q-34 0 -58 -24t-24 -58v-82v-28v-55v-27q0 -103 72.5 -175.5t174.5 -72.5h165q102 0 174.5 72.5t72.5 175.5v27v55v28v82q0 34 -24 58t-58 24zM324 512q0 80 56.5 136.5t136 56.5
t136 -56.5t56.5 -136.5v-110h-55v110q0 38 -18.5 69.5t-50 50t-69.5 18.5q-56 0 -96.5 -40.5t-40.5 -97.5v-110h-55v110zM626 512v-110h-219v110q0 46 32 78t77.5 32t77.5 -32t32 -78zM791 238v-28v-55v-27q0 -80 -56.5 -136.5t-135.5 -56.5h-165q-52 0 -96.5 26t-70 70
t-25.5 97v27v55v28v82q0 11 8 19t19 8h55h385h55q11 0 19 -8t8 -19v-82zM516 238q-22 0 -38.5 -16.5t-16.5 -38.5q0 -5 1 -10t2.5 -11t3 -13t3.5 -13l4 -14q2 -6 5 -13q13 -36 36 -36q11 0 18 5t11 12t8 19q18 49 18 74q0 14 -7 27t-20 20.5t-28 7.5z" />
    <glyph glyph-name="uniE606" unicode="&#xe606;" 
d="M37 -30h950v-73h-950v73zM183 260v-181h181zM907 622l-181 182l-517 -518l181 -181z" />
    <glyph glyph-name="uniE607" unicode="&#xe607;" 
d="M819 719h-56q-8 0 -15.5 -3t-13 -9t-5.5 -13q0 -12 11 -21.5t23 -9.5h56q25 0 40 -15.5t15 -40.5v-643q0 -25 -15 -40.5t-40 -15.5h-602q-26 0 -48 16t-22 40v643q0 25 15.5 40.5t40.5 15.5h70q5 0 9.5 2.5t7 7t3.5 10t1 11.5q0 12 -5 18.5t-16 6.5h-70q-56 0 -84 -31
t-28 -82v-636q0 -35 13.5 -61.5t40 -41.5t64.5 -15h604q57 0 87 30t30 88v636q0 24 -7 44.5t-21 36t-35.5 24t-47.5 8.5zM273 467q0 -12 8.5 -20.5t19.5 -8.5h420q12 0 20.5 8.5t8.5 20t-8.5 20t-20.5 8.5h-420q-11 0 -19.5 -8.5t-8.5 -19.5zM720 341h-419q-11 0 -19.5 -8.5
t-8.5 -20.5q0 -7 4 -14t10.5 -10.5t13.5 -3.5h420q6 0 11 2t9 6t6.5 9t2.5 11q-1 13 -9.5 21t-20.5 8zM720 173h-419q-5 0 -10.5 -2.5t-9 -6t-6 -9t-2.5 -10.5q0 -4 0.5 -7t2 -6t3.5 -5.5t4.5 -4.5t5.5 -3l6 -2q3 -1 6 -1h420q8 0 14.5 4t10.5 10.5t4 14.5q-1 12 -9.5 20
t-20.5 8zM414 649h195q7 0 13.5 2.5t11.5 7t9 10.5t6 13.5t2 14.5q0 20 -12.5 34.5t-30.5 14.5h-194q-17 0 -29.5 -14.5t-12.5 -34t12.5 -34t29.5 -14.5zM414 649z" />
    <glyph glyph-name="uniE608" unicode="&#xe608;" 
d="M649 -75q-1 -57 -40.5 -97t-96.5 -40t-96.5 40t-40.5 97h274zM603 721q0 38 -26.5 64.5t-64.5 26.5t-64.5 -26.5t-26.5 -64.5q0 -8 1 -15q-47 -16 -88.5 -49t-72.5 -76.5t-49.5 -98.5t-18.5 -114v-125l-4 -81q-11 -99 -40 -101q-13 0 -23.5 -6t-17 -16.5t-6.5 -22.5
q0 -5 1 -9t2.5 -7.5t3.5 -7t4.5 -6.5t5.5 -5.5t6 -4.5t7 -3.5t8 -2t8 -0.5h364h319h45q9 0 17.5 3.5t14.5 9.5t10 14.5t4 18.5q0 12 -6.5 22.5t-17 16.5t-22.5 6q-45 0 -45 181v126q0 79 -30 148.5t-81.5 118.5t-117.5 71q1 7 1 15z" />
    <glyph glyph-name="uniE609" unicode="&#xe609;" 
d="M890 -212h-763q-52 0 -89.5 37.5t-37.5 89.5v763q0 54 38 94t90 40h512v-64h-512q-26 0 -45 -21.5t-19 -48.5v-763q0 -26 18.5 -44.5t44.5 -18.5h763q27 0 48.5 19t21.5 45v512h64v-512q0 -52 -40.5 -90t-93.5 -38zM510 96q-12 -12 -33 -16l-278 -138q-23 -10 -38.5 5.5
t-6.5 39.5l138 279q4 20 16 33l494 494q19 19 45.5 19t44.5 -19l113 -112q12 -12 16.5 -28.5t0 -33t-16.5 -28.5zM215 26q-6 -11 2.5 -19.5t19.5 -3.5l172 104l-90 91zM375 231l68 -67l1 -2l2 -1v-1h1v-1h1v-1l1 -1h1v-1l1 -1h1v-1l1 -1l1 -1h1l1 -1l1 -1v-1l1 -1l1 -1l1 -1
l1 -1l1 -1l1 -1l1 -1l1 -1l360 360l-113 112l-359 -359q10 -11 22 -23zM937 658l-67 68q-10 9 -23 9t-22 -9l-66 -66l111 -114l67 67q10 10 10 23t-10 22z" />
    <glyph glyph-name="uniE60A" unicode="&#xe60a;" 
d="M751 650h-478v-618h478v618zM562 700q0 2 -1 4l-2 2q-1 2 -3 3t-4 1h-100q-10 0 -10 -10v-10q0 -10 10 -10h100q3 0 5 1.5t3.5 3.5t1.5 5v10zM512 -87q16 0 28 11.5t12 28.5q0 8 -3 15.5t-8.5 12.5t-13 8.5t-15.5 3.5q-16 0 -28 -12t-12 -28.5t12 -28t28 -11.5zM751 -147
h-478q-16 0 -30 8t-22 22t-8 30v777q0 24 17.5 42t42.5 18h478q25 0 42.5 -18t17.5 -42v-777q0 -25 -17.5 -42.5t-42.5 -17.5z" />
    <glyph glyph-name="uniE60B" unicode="&#xe60b;" 
d="M482 467q-10 -10 -24.5 -10t-24.5 10t-10 24t10 24l145 146q13 12 28 22.5t30.5 18.5t32 13t33 7.5t33.5 2.5q61 0 111.5 -29.5t80 -80.5t29.5 -111q0 -44 -16 -84.5t-48 -72.5l-158 -158q-10 -9 -20 -17t-20.5 -14.5t-21.5 -11.5t-22.5 -9t-23.5 -6.5t-24 -3.5t-24 -1
q-58 0 -109 29t-80 78v1q-8 11 -13.5 23.5t-9.5 26.5q-2 6 -1 13t4 12.5t8 10t12 6.5q10 3 18.5 1t15 -8.5t9.5 -15.5q5 -17 15 -35q21 -34 56 -54t75 -20q30 0 58 11t50 32l158 159q44 44 44 107.5t-44.5 108t-108.5 44.5t-107 -44h-1zM539 91l-146 -146q-21 -21 -50 -32.5
t-58 -11.5t-57.5 11t-50.5 33v0q-44 45 -44 108.5t44 108.5l156 157q22 21 50.5 32.5t58.5 11.5q63 0 108 -44v-1q5 -4 9 -9t7.5 -10t6.5 -11q2 -3 4.5 -7.5t4.5 -9t3.5 -8.5t2.5 -9q4 -13 16.5 -20t26 -3t20.5 16.5t3 26.5q-4 13 -9.5 25.5t-11.5 24.5q-16 24 -34 43
q-66 65 -157.5 65t-156.5 -65l-157 -157q-64 -64 -64 -156.5t64 -157.5l2 -1q22 -21 47.5 -35t52.5 -21t56 -7t56 7t52.5 21.5t46.5 35.5l1 1l146 145q10 10 9.5 24.5t-10.5 24.5t-24 10t-24 -10v0z" />
    <glyph glyph-name="uniE60C" unicode="&#xe60c;" 
d="M764 320l-1 1l-318 298l-56 -61l258 -242l-240 -261l61 -56z" />
    <glyph glyph-name="uniE60D" unicode="&#xe60d;" 
d="M886 788h-748q-51 0 -87.5 -36t-36.5 -88v-560q0 -52 36.5 -88t87.5 -36h748q51 0 87.5 36t36.5 88v560q0 13 -2.5 25.5t-7 23.5t-11.5 21t-15.5 18t-18.5 15t-21 11.5t-23 7t-25 2.5zM855 727l-343 -298l-343 298h686zM948 104q0 -26 -18 -44.5t-44 -18.5h-748
q-17 0 -31.5 8.5t-22.5 23t-8 31.5v560q0 14 5 25.5t15 20.5l416 -357l416 357q20 -19 20 -46v-560z" />
    <glyph glyph-name="uniE60E" unicode="&#xe60e;" 
d="M531 -45l317 317q4 3 8.5 8t12.5 20.5t8 31.5v195l-39 -22v-105q1 -4 0 -11.5t-12 -28t-31 -38.5l-315 -315zM621 539q1 6 3.5 15.5t11.5 38t19.5 54.5t27 58t34.5 55t42.5 39.5t49.5 17.5q44 1 75.5 -13.5t46.5 -39t21 -49t5 -49.5q-3 -49 -41.5 -87t-77.5 -45v19v15
q0 5 0.5 9t0.5 5v2q1 0 2.5 0.5t6.5 2.5t9.5 4.5t11.5 6.5t12.5 8.5t11.5 11t10 14t6.5 17t2.5 19.5q0 44 -25.5 77.5t-77.5 28.5q-18 -2 -36 -17.5t-32.5 -38.5t-28 -50.5t-23.5 -54t-17 -49.5t-11 -36t-4 -14l-13 -13l-23 38v0zM752 681h35v-271q0 -4 -1 -8t-2.5 -8
t-3.5 -8t-4 -7.5t-4.5 -6.5t-4.5 -5.5t-3.5 -4.5t-2.5 -3l-1 -1l-403 -400l-295 298l399 397q8 8 15.5 13.5t13 8t9.5 4t6 2.5h2h211l-49 -122l6 -24q0 -2 0.5 -5.5t0.5 -7.5v-6v-4v-2q-4 -15 -16.5 -25t-28.5 -10q-19 0 -33.5 14t-14.5 33q0 12 11 27t26 18l14 44
q-43 -8 -67 -33.5t-24 -56.5q0 -18 7 -34.5t19 -28.5t28 -19t35 -7q24 0 44.5 12t32.5 32.5t12 44.5q-1 9 -2.5 15.5t-2 8.5t-4.5 15q-1 4 -0.5 10t2.5 14l6 16q2 8 5 16t5.5 14.5t3.5 10.5l2 4zM752 681z" />
    <glyph glyph-name="uniE60F" unicode="&#xe60f;" 
d="M553 825q-25 12 -47 -6l-256 -213l-204 1h-1q-18 0 -31 -13q-13 -14 -13 -32l-1 -356q0 -6 1.5 -11.5t4.5 -10.5t7 -10q13 -13 31 -13h207l255 -212q12 -10 28 -10q5 0 10 1t9 3q12 5 19 16t7 24v802q0 28 -26 40zM726 602q-17 8 -34 2t-25 -22q-4 -9 -4.5 -17.5
t2.5 -16.5t8.5 -15t13.5 -11q4 -2 9 -5t17 -14.5t20.5 -25.5t16 -38t7.5 -52q0 -29 -7 -54.5t-15 -40t-19 -26.5t-15.5 -15.5t-8.5 -4.5q-8 -4 -13.5 -11t-8.5 -15t-2 -17t5 -17q2 -5 5 -8.5t7 -6.5t8.5 -5t9.5 -3.5t9 -1.5q11 0 20 5q6 3 14 8t27.5 24t34 42t26.5 62.5
t12 84.5q0 128 -93 198q-15 12 -27 17zM864 733q-6 4 -12.5 6t-13.5 1.5t-13.5 -3t-12 -7t-9.5 -10.5q-10 -15 -6 -33t19 -29q7 -4 15 -11t28.5 -31t35.5 -52.5t27.5 -77t12.5 -102.5q0 -31 -4 -60.5t-10 -52.5t-14.5 -44t-17.5 -36.5t-18.5 -29.5t-17.5 -22.5t-15.5 -15.5
t-11 -9.5t-5.5 -4.5q-15 -10 -18.5 -28t6.5 -33q2 -4 4.5 -6.5t5.5 -4.5l6 -4q3 -2 6.5 -3t7 -1.5t7.5 -0.5q13 0 25 7q4 3 10.5 8t22 20.5t30 34t31.5 48.5t29.5 63t21 79t8.5 96q0 68 -16.5 129.5t-37 98t-47.5 67.5t-39 40t-20 14z" />
    <glyph glyph-name="uniE610" unicode="&#xe610;" 
d="M647 469q0 -15 -7 -27.5t-19 -20t-26 -7.5q-22 0 -37.5 16t-15.5 39t15.5 39t37.5 16q2 0 5.5 -1t4.5 -1q-20 15 -44 23t-49 8q-67 0 -114.5 -50t-47.5 -120q0 -46 21.5 -85t59 -62t81.5 -23q67 0 114.5 50t47.5 120q0 53 -30 97q3 -9 3 -11zM962 399q-16 31 -38 61.5
t-50 59t-59 54t-67.5 46.5t-74 36.5t-79 24t-82.5 8.5q-71 0 -141.5 -25t-128.5 -66.5t-104.5 -92.5t-74.5 -106l-9 -16l9 -17q28 -54 74.5 -105.5t104.5 -92.5t128.5 -66t141.5 -25q32 0 64.5 5t62.5 15t60 23.5t56.5 30t52 36t48 41t42 44.5t35.5 46.5t29 47.5l9 17z
M512 145q-114 0 -220.5 71t-163.5 167q36 61 94 114t135.5 88.5t154.5 35.5q59 0 118 -20.5t108.5 -54.5t90 -76t67.5 -87q-57 -96 -163.5 -167t-220.5 -71z" />
    <glyph glyph-name="uniE611" unicode="&#xe611;" 
d="M992 -96q-4 -4 -8 -5.5t-7.5 -1.5t-7 1.5t-6.5 5.5l-189 189q15 14 29 29l189 -186q11 -16 0 -32zM454.5 13q-116.5 0 -215.5 57.5t-156 156t-57 215t57 215.5t156 156t215 57q88 0 167 -34t136.5 -91t91.5 -136.5t34 -166.5q0 -117 -57.5 -215.5t-156 -156t-215 -57.5z
M454 826q-105 0 -193.5 -52t-139.5 -140t-51 -192q0 -153 104 -265q101 -109 248 -121q16 -2 32 -2q106 0 195 52t141 141t52 195q0 52 -14 102t-39 92.5t-60.5 77.5t-78 59.5t-93 38.5t-103.5 14zM643 622q-5 5 -14 4t-14 -6l-160 -145l-160 145q-5 5 -14 6t-14 -4
q-3 -2 -5.5 -5t-2.5 -6t1 -5.5t4 -4.5l146 -131h-108q-21 -6 -21 -19q0 -5 3 -9t8 -6t10 -2h132v-62h-132q-8 0 -14.5 -4.5t-6.5 -12t6.5 -12t14.5 -4.5h132v-131q0 -6 6.5 -11t14.5 -5t14.5 5t6.5 11v131h132q5 0 10 2.5t8 6t3 7.5q0 7 -6.5 12t-14.5 5h-132v62h132
q8 0 14.5 5.5t6.5 11.5t-6.5 11t-14.5 5h-108l146 134q4 2 5 6t-1 8.5t-7 6.5z" />
    <glyph glyph-name="uniE612" unicode="&#xe612;" 
d="M937 110h-770q31 221 63 315q38 115 114.5 176t162.5 62q1 0 2 -1h1q2 0 3 1q80 -1 155.5 -61t115.5 -172q5 -13 9.5 -31t8.5 -43.5t7 -45t8.5 -54t7.5 -52.5q2 -8 10 -12.5t17 -2.5q8 3 12 10t2 17q-23 178 -42 228q-43 119 -123 186t-169 74v22q0 5 -2 8.5t-4.5 6.5
t-6.5 4.5t-9 1.5t-10 -2.5t-8 -7.5t-3 -11v-22q-56 -4 -107.5 -30.5t-88.5 -66t-63 -82.5t-41 -87q-30 -91 -64 -328h-39q-6 0 -11 -3t-8 -8t-3 -10q0 -9 6.5 -15.5t15.5 -6.5h53h4h4h790q8 0 14.5 6.5t6.5 15.5q0 2 -0.5 4t-1.5 4t-2 3.5t-2.5 3t-3 2.5t-3.5 2t-4 1.5
t-4 0.5zM652.5 -21.5q-7.5 4.5 -16 2.5t-13.5 -10q-9 -16 -34 -33.5t-53 -29.5t-47 -12q-28 0 -59.5 19.5t-46.5 44.5q-12 15 -20.5 19.5t-15.5 -0.5q-15 -9 -8 -29q15 -40 57 -68.5t93 -27.5q54 -2 101.5 27.5t69.5 68.5q5 7 2.5 15.5t-10 13z" />
    <glyph glyph-name="uniE613" unicode="&#xe613;" 
d="M512 -161l-13 9q-445 313 -467 586v54q5 62 27 113.5t54.5 83.5t69.5 51t75 23q64 6 113.5 -7t79 -34t61.5 -58q24 27 45.5 45t51.5 33t69 20t88 1q91 -9 156 -87q61 -74 70 -182v-54q-7 -93 -61 -188.5t-155 -194.5t-251 -205zM302 716q-18 0 -39 -2q-68 -7 -123 -66.5
t-63 -161.5v-50q20 -247 435 -542q416 295 435 544v50q-4 52 -22 94.5t-44.5 69.5t-57 43t-62.5 19q-82 8 -130 -15t-102 -88l-17 -20l-17 20q-48 57 -88.5 81t-104.5 24z" />
    <glyph glyph-name="uniE614" unicode="&#xe614;" 
d="M901 639q-18 16 -42 16h-4h-3t-9.5 -0.5t-13.5 -0.5q-68 0 -121 13q-27 7 -58.5 27t-61 44t-31.5 26q-15 10 -34 10q-9 0 -17.5 -2.5t-16.5 -7.5l-5 -5q-5 -5 -12.5 -12t-18.5 -16t-24 -18.5t-26.5 -18.5t-29.5 -16t-31 -11q-54 -13 -122 -13q-7 0 -13.5 0.5t-8.5 0.5h-4
h-2h-2q-12 0 -23 -4t-19 -12q-9 -9 -14 -20.5t-5 -23.5v-151q0 -368 203 -541q86 -73 177 -92h3q6 -1 11.5 -1t10.5 1q11 2 27 6t56 23t76 45t79.5 76t74.5 113t52 159.5t21 210.5v151q-1 26 -19 44v0zM859 444q0 -340 -186 -496q-76 -63 -150 -78q-7 1 -19 4.5t-46.5 19.5
t-66 39.5t-70 69t-66.5 102.5t-46.5 145.5t-18.5 193.5v151q1 0 30 -1q76 0 137 15q37 9 78.5 35t64.5 48l23 22q4 -4 10 -9.5t25.5 -21.5t38.5 -29t45.5 -26t50.5 -19t51.5 -9.5t46.5 -4.5t38 -1l30 1v-151v0zM712 475l-235 -234l-117 116q-11 11 -26.5 11t-26.5 -11
q-5 -5 -8 -12t-3 -14t3 -14t8 -12l136 -136q3 -4 6 -7q12 -11 28 -11q15 0 27 11q1 1 2.5 3t3.5 4l255 254q11 11 11 26t-11 26q-7 7 -16.5 9.5t-19.5 0t-17 -9.5v0zM712 475z" />
    <glyph glyph-name="uniE615" unicode="&#xe615;" 
d="M366 763h292v49h-292v-49zM390 666h244v48h-244v-48zM488 763v-49h48v49h-48zM756 690h49q27 0 49 -13t35 -35t13 -49v-610q0 -16 -4.5 -32t-12 -29.5t-19 -24.5t-25 -19t-29 -12.5t-32.5 -4.5h-536q-20 0 -38.5 6.5t-33.5 17.5t-26.5 26t-17.5 33.5t-6 38.5v610
q0 16 5 31t13.5 27t20.5 20.5t27 13.5t31 5h49v49h-49q-61 0 -103.5 -42.5t-42.5 -103.5v-610q0 -70 50 -120.5t121 -50.5h536q71 0 121 50.5t50 120.5v610q0 61 -42.5 103.5t-103.5 42.5h-49v-49zM315 277l173 -172l34 34l-172 173zM746 433l-258 -259l34 -35l259 259z" />
    <glyph glyph-name="uniE616" unicode="&#xe616;" 
d="M507 -95q-91 0 -175 33q-87 34 -155 99t-106 150q-13 29 -22.5 59.5t-14.5 62t-5 63.5q-3 98 33 188q34 87 98.5 155t150.5 106q88 40 185 42q10 0 17 -6.5t7 -15.5q0 -7 -3 -12t-8 -8.5t-12 -3.5q-86 -2 -164.5 -36.5t-138.5 -97.5t-90.5 -143t-28.5 -167
q3 -115 61.5 -212.5t157 -153.5t214.5 -56h5h5q87 2 165.5 36.5t138 97.5t90.5 143t29 167q0 6 3 11.5t8 8.5t11 3h1q6 0 11.5 -3t8.5 -8t3 -11q1 -49 -7 -96t-26 -92q-34 -87 -99 -155t-150 -106q-88 -40 -186 -42h-12zM507 -95q-54 0 -108 12q-94 22 -173 79.5t-129 140.5
q-12 20 -22 40.5t-17.5 42t-13.5 44t-10 45.5q-14 93 7 184q22 94 79.5 173t139.5 129q80 48 173 62q46 8 92 6t92 -12q94 -22 173 -79q7 -6 8.5 -15.5t-4 -17t-15 -9t-16.5 3.5q-71 51 -154 71t-168.5 6.5t-158.5 -58t-124.5 -114.5t-71.5 -153.5t-6.5 -169t58.5 -158.5
t115 -124t153.5 -71t169 -6.5t158.5 58t124 114.5q6 8 15.5 9.5t17 -4t9 -15t-4.5 -17.5q-28 -39 -63.5 -71.5t-76.5 -57.5q-80 -48 -172 -62q-10 -2 -19 -3l-20 -2q-9 -1 -18 -1h-19zM972 569h-191q-9 0 -16 7t-7 16q0 6 3 11.5t8.5 8.5t11.5 3h191q10 0 17 -6.5t7 -16.5
q0 -6 -3.5 -11.5t-8.5 -8.5t-12 -3zM876.5 473q-9.5 0 -16 7t-6.5 16v192q0 4 1 7.5t3 6t5 4.5t6.5 3.5t7.5 1.5q9 0 16 -7t7 -16v-192q0 -9 -7 -16t-16.5 -7zM514 383l-160 132q-5 4 -7 10t-1 12t5 10.5t9.5 7t11.5 1.5t11 -5l131 -108l127 104q5 4 11 5t12 -1t10 -7t5 -11
t-1.5 -11.5t-7.5 -9.5zM514 136q-3 0 -6 0.5t-5.5 2t-4.5 3.5t-3.5 4.5t-2.5 5.5t-1 7v254q0 9 7 16t16 7q5 0 9 -2t7.5 -5t5 -7t1.5 -9v-254q0 -4 -0.5 -7t-2 -5.5t-4 -4.5t-5 -3.5t-5.5 -2t-6 -0.5zM662 220h-294h-4l-4 2q-2 0 -3.5 1t-2.5 3l-4 2q-1 2 -2 3.5t-2 3.5v4
q-1 2 -1 4q0 3 1 6t2.5 5.5t3.5 4.5t4.5 3.5t5.5 2.5t6 1h294q9 0 16 -6.5t7 -16t-7 -16.5t-16 -7zM662 329h-294q-9 0 -16 7t-7 16.5t7 16t16 6.5h294q4 0 8.5 -1.5t7.5 -4.5t5 -7.5t2 -9.5q0 -6 -3.5 -11.5t-8.5 -8.5t-11 -3z" />
    <glyph glyph-name="uniE617" unicode="&#xe617;" horiz-adv-x="1114" 
d="M586 -116q-36 0 -126 122q-7 9 -14.5 19.5t-14 20t-12.5 18.5t-11.5 17t-10.5 15.5t-8.5 13t-6 9.5t-4 6t-1.5 3q-23 37 -45.5 77.5t-50.5 97.5t-45.5 113.5t-17.5 99.5q0 100 49.5 184.5t134 134t184.5 49.5q112 0 205 -63q8 -5 9.5 -13.5t-3.5 -15.5q-6 -10 -18 -10
q-6 0 -11 4q-83 55 -182 55q-66 0 -126 -25.5t-104 -69t-69.5 -104t-25.5 -126.5q0 -124 147 -358q55 -88 111 -159q50 -63 68 -72q9 4 27.5 22.5t42 48.5t53 72t57.5 89q21 35 41.5 72t46 90t41 105t15.5 90q0 92 -47 170q-5 7 -3 16t10 13q5 3 11 3q5 0 10 -2.5t8 -7.5
q54 -88 54 -192q0 -43 -17 -100t-44.5 -114t-49.5 -97t-45 -77q-41 -65 -85 -125q-89 -119 -127 -119zM586 361q-76 0 -129.5 53.5t-53.5 129.5t53.5 130t129.5 54q50 0 92 -24.5t67 -67t25 -92.5q0 -76 -54 -129.5t-130 -53.5zM586 685q-58 0 -99.5 -41t-41.5 -99.5
t41.5 -100t99.5 -41.5t99.5 41.5t41.5 100t-41.5 99.5t-99.5 41z" />
    <glyph glyph-name="uniE618" unicode="&#xe618;" 
d="M171 746h686q69 0 118 -49t49 -118v-391q0 -69 -49 -118.5t-118 -49.5h-686q-70 0 -119 49.5t-49 118.5v391q0 69 49 118t119 49zM46 574h935v1q0 50 -35.5 85.5t-85.5 35.5h-693q-50 0 -85.5 -35.5t-35.5 -85.5v-1zM981 485h-935v-293q0 -50 35.5 -85.5t85.5 -35.5h693
q33 0 61 16t44 44t16 61v293zM128 291h341v-45h-341v45zM128 372h171v-45h-171v45z" />
    <glyph glyph-name="uniE619" unicode="&#xe619;" horiz-adv-x="1025" 
d="M677 239q1 0 2 -1h1q7 -5 13 -10t12.5 -10.5t12.5 -11.5q9 -9 22 -9t22 9q6 6 8.5 13.5t0 15.5t-8.5 14q-65 64 -155 95q60 35 95.5 95t35.5 131q0 72 -36 132.5t-98.5 96t-135.5 35.5q-112 0 -191.5 -77.5t-79.5 -186.5q0 -72 36.5 -132.5t97.5 -95.5
q-120 -42 -196 -145t-76 -232q0 -6 3 -12q8 -19 29 -19q13 0 22 9t9 21q0 93 46.5 171.5t127 124t175.5 45.5h3h3h9q3 0 7 -0.5t8 -0.5t18 -2q2 0 5 -0.5t6 -0.5q15 -3 22 -5h2l1 -1q66 -15 122 -56zM468 367q-42 0 -81 16t-67 43t-44.5 65t-16.5 79q0 84 61.5 143.5
t147.5 59.5q56 0 104 -27t76 -74t28 -102q0 -19 -3.5 -37t-9.5 -34.5t-15 -31.5t-21 -28t-25 -24.5t-29 -20.5t-32.5 -15t-35 -9.5t-37.5 -2.5zM865 40q-18 0 -30 -12t-12 -29t12 -29q6 -6 13.5 -9t16.5 -3q17 0 29 12q13 12 13 29t-13 29q-5 5 -13 8.5t-16 3.5zM952 251
q-8 11 -21.5 12.5t-24.5 -6.5q-249 -181 -276 -202q-17 -13 -36.5 -34.5t-30.5 -37.5l-11 -15l6 -10q39 1 107 42q62 37 282 205q11 9 12.5 22.5t-7.5 23.5z" />
    <glyph glyph-name="uniE61A" unicode="&#xe61a;" 
d="M264 536q-24 0 -40.5 -16.5t-16.5 -40t16.5 -40.5t40 -17t40 17t16.5 40.5t-16.5 40t-39.5 16.5zM264 536zM516 536q-23 0 -39.5 -16.5t-16.5 -40t16.5 -40.5t40 -17t40 17t16.5 40.5t-16.5 40t-40.5 16.5zM516 536zM769 536q-24 0 -40.5 -16.5t-16.5 -40t16.5 -40.5
t40 -17t40 17t16.5 40q0 15 -7.5 28.5t-20.5 21t-28 7.5zM769 536zM864 832h-712q-33 0 -65 -18t-53.5 -52.5t-21.5 -76.5v-426q0 -62 39.5 -103t105.5 -41h383q-18 -178 -18 -185q8 7 22 18t50.5 40.5t66 53t57 45.5t35.5 28h116q15 0 31.5 3.5t37 13.5t36.5 26t27 44
t11 63v408q0 24 -6 46.5t-16 39.5t-24 31t-30.5 23t-34.5 14t-37 5zM971 253q0 -30 -13 -51.5t-32.5 -30t-33.5 -12t-24 -3.5h-128q-11 -7 -53 -41t-79 -63l-36 -30q11 106 13 134h-425q-32 0 -55 11t-32.5 26t-15 30t-5.5 26v10v426q0 23 8.5 43t23 34t34.5 22t42 8h700
q33 0 58.5 -16t39 -41t13.5 -54v-428z" />
    <glyph glyph-name="uniE61B" unicode="&#xe61b;" 
d="M84 164q-8 0 -13.5 6t-5.5 14v456q0 11 5 20t14 14t20 5h162q8 0 13.5 -5.5t5.5 -13.5t-5.5 -14t-13.5 -6h-162v-456q0 -3 -1 -6t-3 -5.5t-4.5 -4.5t-5.5 -3t-6 -1zM758 517q-5 0 -9.5 2.5t-7 7t-2.5 10.5v103h-64q-8 0 -14 6t-6 14t6 13.5t14 5.5h64q16 0 27.5 -11.5
t11.5 -27.5v-103q-3 -17 -20 -20zM266 640q-12 0 -18 11q-3 7 -0.5 14.5t9.5 11.5l281 145q7 4 15 1.5t11.5 -10t1 -15t-9.5 -11.5l-282 -145q-4 -2 -8 -2zM389 610q-12 0 -17 10q-2 4 -2.5 8t1 7.5t4 6.5t5.5 4l223 115q7 4 15 1.5t11 -9.5q2 -3 2.5 -6t0 -6t-2 -6t-3.5 -5
t-5 -3l-223 -115q-4 -2 -9 -2zM869 164h-129q-18 0 -34.5 7t-28 19t-18.5 28.5t-7 34.5q0 37 25.5 62.5t62.5 25.5h129q37 0 63 -25.5t26 -62.5t-26 -63t-63 -26zM740 303q-20 0 -35 -15t-15 -35.5t15 -35t35 -14.5h129q21 0 35.5 14.5t14.5 35.5q0 13 -6.5 24.5t-18 18.5
t-25.5 7h-129zM819 -55h-703q-21 0 -36 15t-15 36v509q0 14 6.5 25.5t18.5 18.5t26 7h703q7 0 13.5 -2t12 -5t10.5 -8t8 -10.5t5 -12t2 -13.5v-183h-39v183q0 5 -3.5 8.5t-8.5 3.5h-703q-4 0 -6.5 -1.5t-4 -4.5t-1.5 -6v-509q0 -5 3.5 -8.5t8.5 -3.5h703q5 0 8.5 3.5
t3.5 8.5v188h39v-188q0 -32 -29 -46q-11 -5 -22 -5zM792 233h-23q-8 0 -13.5 6t-5.5 14t5.5 13.5t13.5 5.5h23q8 0 14 -5.5t6 -13.5t-6 -14t-14 -6zM675 640q-10 0 -16 8l-63 84l-2 6q-1 3 -1 6t0.5 5.5t2.5 5t4 4.5q7 5 15 4t13 -8l62 -84q5 -6 4 -14t-7 -13q-6 -4 -12 -4z
" />
    <glyph glyph-name="uniE61C" unicode="&#xe61c;" 
d="M892 656h-132q28 19 44 36q13 11 22 24.5t14 27.5t6 28q3 42 -25 75q-10 12 -23 21t-28.5 14t-31.5 6q-54 3 -106 -36q-40 -24 -89 -84q-24 -28 -37 -72.5t-14 -65.5t-1 -36v-257h-388v244q0 9 4 16t11.5 11t15.5 4h213q5 0 10 2.5t8 6.5t4 10q1 8 -3.5 14.5t-11.5 9.5
q-2 0 -5.5 1.5t-13 7t-20.5 12.5t-28 20t-36 28q-24 21 -26 47q-1 8 0.5 15.5t5 15t8.5 13.5q13 16 32 23.5t45.5 2.5t51.5 -25h1q1 -1 2 -1q10 -7 34 -30q6 -6 14 -13t25.5 -18.5t32.5 -14.5q9 -2 16.5 3t9.5 14q1 6 -0.5 11.5t-6 9.5t-10.5 5q-22 5 -49 34h-1
q-29 28 -42 36q-35 27 -72.5 33t-67 -6t-49.5 -36q-27 -34 -24 -75q3 -44 42 -77q12 -10 23 -19t21 -16h-133q-20 0 -37.5 -10t-27.5 -27t-10 -38v-621q0 -30 22 -52t53 -22h758q21 0 38 10t27 27t10 37v621q0 31 -22 53t-53 22zM535 595q-1 23 4 54q10 59 38 91
q9 11 18.5 21.5t16.5 17.5t14 13t11.5 10t8.5 7l6 4q2 1 3 1q1 1 3 2q26 20 52 25.5t45.5 -1t31.5 -21.5q10 -12 14 -26.5t-2.5 -33t-24.5 -36.5h-1q-4 -4 -12 -11t-34.5 -25.5t-57.5 -33.5q-15 -8 -11 -25t21 -17l213 1q9 0 16 -4t11 -11t4 -16v-244h-388v257v1zM103 -40
v333h388v-363h-357q-13 0 -22 9t-9 21zM892 -70h-357v363h388v-333q0 -12 -9 -21t-22 -9z" />
    <glyph glyph-name="uniE61D" unicode="&#xe61d;" 
d="M744 -55v41h187q2 0 4 1t3.5 1.5t2.5 1.5l2 4q1 1 1.5 3t0.5 4v589q0 4 -2 7t-5 5t-7 2h-436v42h436q23 0 39.5 -16.5t16.5 -39.5v-589q0 -23 -16.5 -39.5t-39.5 -16.5h-187zM600 -49v2q0 105 -74.5 179.5t-179.5 74.5t-179.5 -74.5t-74.5 -179.5v-2h-46v2q0 100 61 180
t158 108q-57 24 -92 76.5t-35 114.5q0 28 7.5 55t21 50t32.5 42t42 32.5t50 21t55 7.5q56 0 104 -27.5t76 -75.5t28 -105q0 -12 -1.5 -24.5t-4.5 -24t-7 -23t-9.5 -22t-12.5 -21t-14.5 -19.5t-16.5 -17.5t-18.5 -15.5t-20.5 -13t-22 -11q97 -28 158 -108t61 -180v-2h-46z
M346 595q-44 0 -81.5 -22t-59.5 -59.5t-22 -81.5q0 -67 48 -115t115 -48t115 48t48 115q0 44 -22 81.5t-59.5 59.5t-81.5 22zM660 202v46h219v-46h-219zM583 343v47h296v-47h-296zM583 476v47h296v-47h-296z" />
    <glyph glyph-name="uniE61E" unicode="&#xe61e;" 
d="M794 477q0 117 -83 199.5t-199 82.5t-199 -82.5t-83 -199.5q0 -80 42.5 -147.5t111.5 -102.5q-130 -41 -218.5 -144t-88.5 -220q0 -11 7.5 -18.5t18 -7.5t18 7.5t7.5 18.5q0 28 7 56t19.5 54t30 51t40 47t47.5 41.5t54 34.5t59 26t62.5 17t64.5 6q120 0 203 86
q78 83 79 195zM512 247q-95 0 -162.5 67.5t-67.5 162.5q0 63 30.5 116t84 84t115.5 31t115.5 -31t84 -84t30.5 -116q0 -95 -67.5 -162.5t-162.5 -67.5zM641 170.5q0 -10.5 7.5 -18t17.5 -7.5h256q10 0 17.5 7.5t7.5 17.5q0 7 -3.5 13t-9 9.5t-12.5 3.5h-256
q-10 0 -17.5 -7.5t-7.5 -18zM922 42h-256q-5 0 -9.5 -2t-8 -5.5t-5.5 -8t-2 -9.5q0 -11 7.5 -18.5t17.5 -7.5h256q10 0 17.5 7.5t7.5 18t-7.5 18t-17.5 7.5zM922 -111h-256q-7 0 -13 -3.5t-9.5 -9.5t-3.5 -13q0 -5 2 -10t5.5 -8.5t8 -5.5t10.5 -2h256q10 0 17.5 7.5
t7.5 18.5q0 7 -3.5 13t-9 9.5t-12.5 3.5z" />
    <glyph glyph-name="uniE61F" unicode="&#xe61f;" horiz-adv-x="1064" 
d="M-49 -72zM1041 -72zM37 -55zM205 -147l327 327l328 -327l121 120l-328 328l328 328l-121 120l-328 -327l-327 327l-121 -120l328 -328l-328 -328zM1028 -55z" />
    <glyph glyph-name="uniE620" unicode="&#xe620;" 
d="M408 -88l-406 392l102 105l297 -287l511 566l109 -99zM408 -88z" />
    <glyph glyph-name="uniE621" unicode="&#xe621;" 
d="M915 377q9 0 15 6.5t6 15.5v231q0 22 -10.5 41t-29.5 29.5t-41 10.5h-693q-34 0 -57.5 -23.5t-23.5 -57.5v-491q0 -33 23.5 -57t57.5 -24h693q34 0 57.5 24t23.5 57v68q0 9 -6 15t-15 6q-3 0 -6.5 -1t-6 -3t-4.5 -4.5t-3 -6t-1 -6.5v0v-63q0 -18 -12.5 -30.5t-30.5 -12.5
h-408h-277q-17 0 -29.5 12.5t-12.5 30.5v329h770v-74q0 -9 6 -15.5t15 -6.5zM124 626q0 18 12.5 30.5t29.5 12.5h685q18 0 30.5 -12.5t12.5 -30.5v-27h-770v27zM124 556h770v-40h-770v40zM165 245h78v-78h-78v78zM771 314q17 0 30 0.5t23.5 0.5t19.5 1v-21q-24 2 -72 2v-37
q20 0 34.5 0.5t26.5 0.5v-19q-30 1 -61 1v-42q67 0 87 3v-22q-5 1 -10.5 1t-14.5 0.5t-24 0.5h-38q0 -17 0.5 -31t1.5 -28h-24q1 26 1 59q-48 0 -71 -0.5t-36 -1.5v22q6 -1 12.5 -1.5t13.5 -0.5h15v37q0 13 -1 22q26 -1 67 -1v37h-51q-13 -23 -27 -41q-8 6 -21 9q4 4 8.5 9
t8.5 10.5t8 12t7.5 12.5t7 12.5t6 13t4.5 12.5q4 -2 8 -3.5t7 -2t6 -1.5q5 -1 5.5 -2t-2.5 -3q-2 -1 -5.5 -5.5t-10.5 -15.5h61zM705 243v-42h46v42h-46z" />
  </font>
</defs>
</svg>
